<svg xmlns="http://www.w3.org/2000/svg" xmlns:xlink="http://www.w3.org/1999/xlink" fill="none" version="1.1" width="33" height="34.000003814697266" viewBox="0 0 33 34.000003814697266"><g><path d="M15.2455,0.302095C16.0352,-0.100698,16.9648,-0.100698,17.7545,0.302094C17.7545,0.302094,31.4493,7.28692,31.4493,7.28692C33.5169,8.34144,33.5169,11.3512,31.4493,12.4057C31.4493,12.4057,29.4544,13.4232,29.4544,13.4232C29.4544,13.4232,31.4493,14.4406,31.4493,14.4406C33.5169,15.4951,33.5169,18.5049,31.4493,19.5594C31.4493,19.5594,29.4544,20.5769,29.4544,20.5769C29.4544,20.5769,31.4493,21.5943,31.4493,21.5943C33.5169,22.6488,33.5169,25.6586,31.4493,26.7131C31.4493,26.7131,17.7545,33.6979,17.7545,33.6979C16.9648,34.1007,16.0352,34.1007,15.2455,33.6979C15.2455,33.6979,1.55067,26.7131,1.55067,26.7131C-0.51689,25.6586,-0.516887,22.6488,1.55067,21.5943C1.55067,21.5943,3.54556,20.5769,3.54556,20.5769C3.54556,20.5769,1.55067,19.5594,1.55067,19.5594C-0.51689,18.5049,-0.516887,15.4951,1.55067,14.4406C1.55067,14.4406,3.54556,13.4232,3.54556,13.4232C3.54556,13.4232,1.55067,12.4057,1.55067,12.4057C-0.516892,11.3512,-0.516887,8.34144,1.55067,7.28692C1.55067,7.28692,15.2455,0.302095,15.2455,0.302095C15.2455,0.302095,15.2455,0.302095,15.2455,0.302095ZM7.3238,12.1509C7.3147,12.1462,7.30555,12.1415,7.29635,12.137C7.29635,12.137,2.80518,9.8463,2.80518,9.8463C2.80518,9.8463,16.5,2.86148,16.5,2.86148C16.5,2.86148,30.1948,9.8463,30.1948,9.8463C30.1948,9.8463,25.7034,12.1371,25.7034,12.1371C25.6944,12.1416,25.6854,12.1461,25.6764,12.1508C25.6764,12.1508,16.5,16.8311,16.5,16.8311C16.5,16.8311,7.3238,12.1509,7.3238,12.1509C7.3238,12.1509,7.3238,12.1509,7.3238,12.1509ZM6.68185,15.0228C6.68185,15.0228,2.80518,17,2.80518,17C2.80518,17,7.29618,19.2906,7.29618,19.2906C7.29618,19.2906,7.32397,19.3047,7.32397,19.3047C7.32397,19.3047,16.5,23.9848,16.5,23.9848C16.5,23.9848,25.6764,19.3046,25.6764,19.3046C25.6764,19.3046,25.7035,19.2907,25.7035,19.2907C25.7035,19.2907,30.1948,17,30.1948,17C30.1948,17,26.3181,15.0228,26.3181,15.0228C26.3181,15.0228,17.7545,19.3905,17.7545,19.3905C16.9648,19.7933,16.0352,19.7933,15.2455,19.3905C15.2455,19.3905,6.68185,15.0228,6.68185,15.0228C6.68185,15.0228,6.68185,15.0228,6.68185,15.0228ZM2.80518,24.1537C2.80518,24.1537,6.68185,22.1765,6.68185,22.1765C6.68185,22.1765,15.2455,26.5442,15.2455,26.5442C16.0352,26.947,16.9648,26.947,17.7545,26.5442C17.7545,26.5442,26.3181,22.1765,26.3181,22.1765C26.3181,22.1765,30.1948,24.1537,30.1948,24.1537C30.1948,24.1537,16.5,31.1385,16.5,31.1385C16.5,31.1385,2.80518,24.1537,2.80518,24.1537C2.80518,24.1537,2.80518,24.1537,2.80518,24.1537Z" fill-rule="evenodd" fill="#F58A07" fill-opacity="1"/></g></svg>