<svg xmlns="http://www.w3.org/2000/svg" xmlns:xlink="http://www.w3.org/1999/xlink" fill="none" version="1.1" width="134" height="31" viewBox="0 0 134 31"><g><g><path d="M39,8.899683C39,8.899683,42.37767,8.899683,42.37767,8.899683C42.37767,8.899683,42.37767,22.2133,42.37767,22.2133C42.37767,22.2133,39,22.2133,39,22.2133C39,22.2133,39,8.899683,39,8.899683C39,8.899683,39,8.899683,39,8.899683ZM43.71748,17.18642C43.71748,13.89368,45.78911,11.92901,48.98664,11.92901C52.184200000000004,11.92901,54.2558,13.89368,54.2558,17.18642C54.2558,20.4792,52.2292,22.4548,48.98664,22.4548C45.74408,22.4548,43.71748,20.534,43.71748,17.18642C43.71748,17.18642,43.71748,17.18642,43.71748,17.18642ZM50.8669,17.18642C50.8669,15.375409999999999,50.135,14.31076,48.98664,14.31076C47.838229999999996,14.31076,47.117670000000004,15.408339999999999,47.117670000000004,17.18642C47.117670000000004,18.9645,47.82697,20.040100000000002,48.98664,20.040100000000002C50.1463,20.040100000000002,50.8669,19.0304,50.8669,17.197400000000002C50.8669,17.197400000000002,50.8669,17.18642,50.8669,17.18642C50.8669,17.18642,50.8669,17.18642,50.8669,17.18642ZM55.528099999999995,22.8609C55.528099999999995,22.8609,58.7706,22.8609,58.7706,22.8609C58.9249,23.1951,59.1858,23.4718,59.5145,23.6498C59.8431,23.8278,60.222,23.8976,60.5946,23.8487C61.8781,23.8487,62.5536,23.1682,62.5536,22.1804C62.5536,22.1804,62.5536,20.3365,62.5536,20.3365C62.5536,20.3365,62.4861,20.3365,62.4861,20.3365C62.216899999999995,20.901600000000002,61.7803,21.3752,61.2324,21.695999999999998C60.6845,22.0169,60.0506,22.170299999999997,59.412400000000005,22.136499999999998C56.9467,22.136499999999998,55.314099999999996,20.3036,55.314099999999996,17.153489999999998C55.314099999999996,14.003440000000001,56.8679,12.01681,59.4574,12.01681C60.1156,11.99166,60.766,12.1632,61.3213,12.50846C61.8767,12.85371,62.3106,13.35618,62.5649,13.948550000000001C62.5649,13.948550000000001,62.5649,13.948550000000001,62.5649,13.948550000000001C62.5649,13.948550000000001,62.5649,12.1156,62.5649,12.1156C62.5649,12.1156,65.9425,12.1156,65.9425,12.1156C65.9425,12.1156,65.9425,22.1036,65.9425,22.1036C65.9425,24.5073,63.7696,26,60.5608,26C57.577200000000005,26,55.7195,24.6939,55.528099999999995,22.8719C55.528099999999995,22.8719,55.528099999999995,22.8609,55.528099999999995,22.8609C55.528099999999995,22.8609,55.528099999999995,22.8609,55.528099999999995,22.8609ZM62.5649,17.175449999999998C62.5649,15.572980000000001,61.810500000000005,14.5632,60.6171,14.5632C59.4236,14.5632,58.6918,15.562000000000001,58.6918,17.175449999999998C58.6918,18.788899999999998,59.412400000000005,19.6999,60.6171,19.6999C61.821799999999996,19.6999,62.5649,18.8108,62.5649,17.18642C62.5649,17.18642,62.5649,17.175449999999998,62.5649,17.175449999999998C62.5649,17.175449999999998,62.5649,17.175449999999998,62.5649,17.175449999999998ZM67.2148,17.175449999999998C67.2148,13.8827,69.2864,11.91803,72.48400000000001,11.91803C75.6815,11.91803,77.7644,13.8827,77.7644,17.175449999999998C77.7644,20.4682,75.7378,22.4438,72.48400000000001,22.4438C69.2301,22.4438,67.2148,20.534,67.2148,17.18642C67.2148,17.18642,67.2148,17.175449999999998,67.2148,17.175449999999998C67.2148,17.175449999999998,67.2148,17.175449999999998,67.2148,17.175449999999998ZM74.3642,17.175449999999998C74.3642,15.36444,73.63239999999999,14.29978,72.48400000000001,14.29978C71.3356,14.29978,70.6713,15.408339999999999,70.6713,17.197400000000002C70.6713,18.9865,71.3806,20.051099999999998,72.529,20.051099999999998C73.6774,20.051099999999998,74.3642,19.0304,74.3642,17.197400000000002C74.3642,17.197400000000002,74.3642,17.175449999999998,74.3642,17.175449999999998C74.3642,17.175449999999998,74.3642,17.175449999999998,74.3642,17.175449999999998ZM79.0479,9.72287C79.039,9.39042,79.13159999999999,9.06289,79.314,8.781808C79.49629999999999,8.500724,79.7601,8.278742,80.072,8.144003C80.3839,8.00926365,80.7298,7.9678349,81.0659,8.024968C81.4019,8.082101,81.713,8.235223,81.9597,8.464923C82.2064,8.694623,82.3776,8.990558,82.4516,9.31521C82.5255,9.63986,82.49889999999999,9.97861,82.3752,10.28852C82.25139999999999,10.59843,82.0361,10.86553,81.7564,11.05598C81.4767,11.24642,81.1454,11.35163,80.8043,11.358270000000001C80.57820000000001,11.37341,80.35130000000001,11.34281,80.1379,11.26839C79.9245,11.19397,79.72919999999999,11.07734,79.5643,10.92582C79.3994,10.77431,79.26830000000001,10.59118,79.17949999999999,10.38794C79.0906,10.1847,79.0458,9.96574,79.0479,9.74482C79.0479,9.74482,79.0479,9.72287,79.0479,9.72287C79.0479,9.72287,79.0479,9.72287,79.0479,9.72287ZM79.0479,12.137550000000001C79.0479,12.137550000000001,82.4256,12.137550000000001,82.4256,12.137550000000001C82.4256,12.137550000000001,82.4256,22.2133,82.4256,22.2133C82.4256,22.2133,79.0479,22.2133,79.0479,22.2133C79.0479,22.2133,79.0479,12.137550000000001,79.0479,12.137550000000001C79.0479,12.137550000000001,79.0479,12.137550000000001,79.0479,12.137550000000001ZM94.6865,17.175449999999998C94.6865,20.4682,93.1891,22.345100000000002,90.622,22.345100000000002C89.96379999999999,22.386200000000002,89.30850000000001,22.2294,88.74459999999999,21.895699999999998C88.1808,21.561999999999998,87.73570000000001,21.067500000000003,87.4695,20.4792C87.4695,20.4792,87.402,20.4792,87.402,20.4792C87.402,20.4792,87.402,25.4402,87.402,25.4402C87.402,25.4402,84.0243,25.4402,84.0243,25.4402C84.0243,25.4402,84.0243,12.1156,84.0243,12.1156C84.0243,12.1156,87.402,12.1156,87.402,12.1156C87.402,12.1156,87.402,13.91563,87.402,13.91563C87.402,13.91563,87.4695,13.91563,87.4695,13.91563C87.7233,13.31757,88.16,12.81025,88.72,12.46265C89.28,12.11505,89.9363,11.94405,90.5995,11.97291C93.1891,12.01681,94.7315,13.90465,94.7315,17.197400000000002C94.7315,17.197400000000002,94.6865,17.175449999999998,94.6865,17.175449999999998C94.6865,17.175449999999998,94.6865,17.175449999999998,94.6865,17.175449999999998ZM91.30879999999999,17.175449999999998C91.30879999999999,15.572980000000001,90.55449999999999,14.55223,89.3723,14.55223C88.1901,14.55223,87.4358,15.58395,87.4245,17.175449999999998C87.41329999999999,18.7669,88.1901,19.7877,89.3723,19.7877C90.55449999999999,19.7877,91.30879999999999,18.788899999999998,91.30879999999999,17.197400000000002C91.30879999999999,17.197400000000002,91.30879999999999,17.175449999999998,91.30879999999999,17.175449999999998C91.30879999999999,17.175449999999998,91.30879999999999,17.175449999999998,91.30879999999999,17.175449999999998ZM100.4848,11.90706C103.2883,11.90706,104.9884,13.202200000000001,105.0672,15.27663C105.0672,15.27663,101.9935,15.27663,101.9935,15.27663C101.9935,14.5632,101.38550000000001,14.11319,100.4511,14.11319C99.5166,14.11319,99.1,14.46442,99.1,14.98028C99.1,15.49615,99.47149999999999,15.660779999999999,100.2259,15.814440000000001C100.2259,15.814440000000001,102.38759999999999,16.2425,102.38759999999999,16.2425C104.448,16.670560000000002,105.3262,17.482770000000002,105.3262,19.0084C105.3262,21.0938,103.3784,22.4329,100.50739999999999,22.4329C97.6363,22.4329,95.7561,21.0938,95.6097,19.0413C95.6097,19.0413,98.86359999999999,19.0413,98.86359999999999,19.0413C98.9649,19.7877,99.5729,20.2267,100.5637,20.2267C101.5544,20.2267,102.0048,19.9084,102.0048,19.3816C102.0048,18.8547,101.68950000000001,18.744999999999997,100.8789,18.5803C100.8789,18.5803,98.9311,18.1742,98.9311,18.1742C96.91579999999999,17.768140000000002,95.8574,16.72544,95.8574,15.18882C95.88,13.213180000000001,97.6926,11.92901,100.4848,11.92901C100.4848,11.92901,100.4848,11.90706,100.4848,11.90706C100.4848,11.90706,100.4848,11.90706,100.4848,11.90706ZM116.5963,22.1914C116.5963,22.1914,113.3425,22.1914,113.3425,22.1914C113.3425,22.1914,113.3425,20.314500000000002,113.3425,20.314500000000002C113.3425,20.314500000000002,113.2749,20.314500000000002,113.2749,20.314500000000002C113.0961,20.944699999999997,112.7015,21.4962,112.1567,21.8776C111.6119,22.2589,110.9497,22.4471,110.2801,22.410899999999998C109.7669,22.4393,109.2535,22.3601,108.7744,22.1784C108.2954,21.9968,107.8619,21.717100000000002,107.5033,21.3581C107.1447,20.9991,106.8692,20.5693,106.6957,20.0977C106.5221,19.6261,106.4544,19.1236,106.4971,18.624299999999998C106.4971,18.624299999999998,106.4971,12.1156,106.4971,12.1156C106.4971,12.1156,109.8748,12.1156,109.8748,12.1156C109.8748,12.1156,109.8748,17.86692,109.8748,17.86692C109.8748,19.063299999999998,110.5053,19.6999,111.5523,19.6999C111.7979,19.700400000000002,112.0407,19.6497,112.2645,19.5512C112.4883,19.4528,112.6879,19.308799999999998,112.8499,19.128999999999998C113.012,18.949199999999998,113.1328,18.7377,113.2041,18.5086C113.2755,18.279600000000002,113.2958,18.0384,113.2637,17.80107C113.2637,17.80107,113.2637,12.1156,113.2637,12.1156C113.2637,12.1156,116.6414,12.1156,116.6414,12.1156C116.6414,12.1156,116.5963,22.1914,116.5963,22.1914C116.5963,22.1914,116.5963,22.1914,116.5963,22.1914ZM118.2289,12.1156C118.2289,12.1156,121.4939,12.1156,121.4939,12.1156C121.4939,12.1156,121.4939,14.058309999999999,121.4939,14.058309999999999C121.4939,14.058309999999999,121.5615,14.058309999999999,121.5615,14.058309999999999C121.7407,13.43651,122.1264,12.8902,122.6581,12.5049C123.1899,12.1196,123.8376,11.917069999999999,124.5001,11.92901C125.174,11.8764,125.8435,12.07302,126.3755,12.47977C126.9075,12.886510000000001,127.2629,13.47358,127.3711,14.12417C127.3711,14.12417,127.4386,14.12417,127.4386,14.12417C127.6429,13.466660000000001,128.0658,12.894079999999999,128.6406,12.49664C129.2154,12.09921,129.9096,11.899519999999999,130.6137,11.92901C131.07299999999998,11.913969999999999,131.5304,11.9933,131.9563,12.16186C132.38209999999998,12.33042,132.7668,12.58444,133.0854,12.907399999999999C133.4039,13.23037,133.6492,13.61506,133.8053,14.03647C133.9613,14.457889999999999,134.0247,14.906600000000001,133.9913,15.35346C133.9913,15.35346,133.9913,22.2133,133.9913,22.2133C133.9913,22.2133,130.6137,22.2133,130.6137,22.2133C130.6137,22.2133,130.6137,16.23152,130.6137,16.23152C130.6137,15.133939999999999,130.107,14.629059999999999,129.1612,14.629059999999999C128.9503,14.627320000000001,128.7415,14.66969,128.5488,14.75332C128.3562,14.83695,128.1841,14.959900000000001,128.04430000000002,15.11385C127.9046,15.26781,127.8003,15.449200000000001,127.7385,15.645800000000001C127.6768,15.84239,127.659,16.04961,127.6863,16.25348C127.6863,16.25348,127.6863,22.2133,127.6863,22.2133C127.6863,22.2133,124.4775,22.2133,124.4775,22.2133C124.4775,22.2133,124.4775,16.187620000000003,124.4775,16.187620000000003C124.4775,15.17785,123.9709,14.629059999999999,123.0477,14.629059999999999C122.8344,14.62912,122.6235,14.673269999999999,122.429,14.758600000000001C122.2345,14.84392,122.0608,14.96848,121.9193,15.12406C121.7778,15.27964,121.6717,15.4627,121.6081,15.66117C121.5445,15.85963,121.5248,16.06899,121.5502,16.27543C121.5502,16.27543,121.5502,22.2133,121.5502,22.2133C121.5502,22.2133,118.1726,22.2133,118.1726,22.2133C118.1726,22.2133,118.2289,12.1156,118.2289,12.1156C118.2289,12.1156,118.2289,12.1156,118.2289,12.1156Z" fill="#4A5D69" fill-opacity="1"/></g><g><g><path d="M28.7615,9.36267C28.1987,8.0326,27.4539,6.79309,26.5498,5.68215C25.2134,3.99087,23.5455,2.61131,21.6561,1.63427C19.7667,0.657235,17.6985,0.104871,15.5877,0.0135342C13.4769,-0.0778021,11.3713,0.293958,9.40944,1.10435C7.44763,1.91474,5.6741,3.14539,4.20558,4.7153C2.73706,6.28521,1.60685,8.15878,0.88933,10.2127C0.17181,12.2666,-0.11675,14.4543,0.0426459,16.6318C0.202042,18.8093,0.805779,20.9273,1.81412,22.8462C2.82246,24.7652,4.21254,26.4416,5.89287,27.7653C6.97106,28.6315,8.16243,29.3358,9.43153,29.857C11.2109,30.6107,13.1152,30.9989,15.0381,31C19.0074,30.9909,22.8112,29.3555,25.6159,26.4523C28.4205,23.5491,29.9971,19.6149,30,15.5121C30.0029,13.3958,29.5812,11.3019,28.7615,9.36267C28.7615,9.36267,28.7615,9.36267,28.7615,9.36267C28.7615,9.36267,28.7615,9.36267,28.7615,9.36267ZM15.027,3.15608C16.7538,3.15588,18.4598,3.546,20.0254,4.29909C20.0254,4.29909,20.0254,4.29909,20.0254,4.29909C19.6436,4.4696,19.2422,4.58868,18.8311,4.65343C17.4782,4.85585,16.2249,5.50507,15.2583,6.50417C14.2917,7.50328,13.6637,8.79869,13.4678,10.1971C13.3819,10.9813,13.0368,11.7109,12.4908,12.2627C11.9449,12.8145,11.2315,13.1548,10.471,13.2261C9.11813,13.4285,7.86486,14.0777,6.89826,15.0768C5.93166,16.0759,5.30357,17.3713,5.10773,18.7697C5.04143,19.5154,4.73362,20.2162,4.23412,20.7586C4.23412,20.7586,4.23412,20.7586,4.23412,20.7586C3.3723,18.8763,2.98515,16.7993,3.10869,14.7208C3.23223,12.6423,3.86246,10.6299,4.94072,8.87088C6.01898,7.11183,7.51022,5.66331,9.27569,4.66012C11.0411,3.65692,13.0234,3.13166,15.0381,3.13321C15.0381,3.13321,15.027,3.15608,15.027,3.15608C15.027,3.15608,15.027,3.15608,15.027,3.15608ZM5.88181,23.5132C6.01451,23.3875,6.14721,23.2732,6.27991,23.136C7.26372,22.1501,7.89522,20.8487,8.07136,19.4441C8.14278,18.6545,8.48383,17.9171,9.03343,17.3638C9.56229,16.7948,10.2741,16.4452,11.035,16.3808C12.3879,16.1784,13.6411,15.5292,14.6077,14.5301C15.5743,13.5309,16.2024,12.2355,16.3983,10.8372C16.4461,10.0113,16.789,9.23332,17.3603,8.654C17.9023,8.09603,18.6209,7.75913,19.384,7.70529C20.6269,7.52854,21.786,6.95743,22.7015,6.07078C23.7439,6.9647,24.6271,8.04008,25.3113,9.24837C25.2692,9.30706,25.221,9.36073,25.1675,9.40839C24.6397,9.98241,23.9287,10.3397,23.166,10.4142C21.8117,10.6131,20.5565,11.2612,19.5893,12.261C18.6221,13.2607,17.9951,14.5581,17.8027,15.9579C17.7247,16.7448,17.386,17.4796,16.8439,18.0379C16.3017,18.5962,15.5896,18.9435,14.828,19.0212C13.4712,19.222,12.2132,19.87,11.241,20.8687C10.2688,21.8674,9.63423,23.1636,9.43153,24.5648C9.37202,25.1234,9.18641,25.6598,8.88967,26.1307C7.75509,25.4345,6.73893,24.5502,5.88181,23.5132C5.88181,23.5132,5.88181,23.5132,5.88181,23.5132C5.88181,23.5132,5.88181,23.5132,5.88181,23.5132ZM15.027,27.9253C13.9049,27.9265,12.7882,27.7649,11.7095,27.4452C12.0785,26.7343,12.3184,25.9595,12.4173,25.1592C12.4948,24.374,12.8319,23.6406,13.3718,23.0825C13.9117,22.5245,14.6213,22.176,15.3809,22.0959C16.7358,21.8957,17.9916,21.2475,18.9603,20.2482C19.9291,19.2489,20.5588,17.9523,20.7552,16.5523C20.8327,15.7671,21.1699,15.0337,21.7098,14.4756C22.2497,13.9175,22.9593,13.5691,23.7189,13.489C24.7385,13.3519,25.7103,12.9595,26.5498,12.3459C27.016,14.1724,27.0712,16.0849,26.7112,17.9368C26.3513,19.7888,25.5857,21.5309,24.4732,23.0295C23.3607,24.5281,21.9309,25.7434,20.2935,26.5821C18.656,27.4209,16.8545,27.8608,15.027,27.8681C15.027,27.8681,15.027,27.9253,15.027,27.9253C15.027,27.9253,15.027,27.9253,15.027,27.9253Z" fill="#4A5D69" fill-opacity="1"/></g><g><rect x="18" y="29" width="1" height="1" rx="0" fill="#4A5D69" fill-opacity="1"/></g></g></g></svg>