<svg xmlns="http://www.w3.org/2000/svg" xmlns:xlink="http://www.w3.org/1999/xlink" fill="none" version="1.1" width="143" height="33" viewBox="0 0 143 33"><g><g><path d="M41,10.00907C41,10.00907,44.60879,10.00907,44.60879,10.00907C44.60879,10.00907,44.60879,24.7483,44.60879,24.7483C44.60879,24.7483,41,24.7483,41,24.7483C41,24.7483,41,10.00907,41,10.00907C41,10.00907,41,10.00907,41,10.00907ZM46.0478,19.2041C46.0478,15.55329,48.296260000000004,13.365079999999999,51.669,13.365079999999999C55.0417,13.365079999999999,57.290099999999995,15.55329,57.290099999999995,19.2041C57.290099999999995,22.8549,55.1203,25.0658,51.669,25.0658C48.21757,25.0658,46.0478,22.9342,46.0478,19.2041C46.0478,19.2041,46.0478,19.2041,46.0478,19.2041ZM53.7151,19.2041C53.7151,17.19728,52.9393,16.01814,51.7027,16.01814C50.46603,16.01814,49.70155,17.15193,49.70155,19.2041C49.70155,21.2562,50.46603,22.378700000000002,51.7027,22.378700000000002C52.9393,22.378700000000002,53.7375,21.2562,53.7375,19.215400000000002C53.7375,19.215400000000002,53.7151,19.2041,53.7151,19.2041C53.7151,19.2041,53.7151,19.2041,53.7151,19.2041ZM58.7291,25.5079C58.7291,25.5079,62.214200000000005,25.5079,62.214200000000005,25.5079C62.3729,25.8863,62.65,26.202,63.0032,26.4067C63.3564,26.6114,63.7663,26.694,64.1704,26.6417C65.5532,26.6417,66.2727,25.8934,66.2727,24.7823C66.2727,24.7823,66.2727,22.741500000000002,66.2727,22.741500000000002C66.2727,22.741500000000002,66.28399999999999,22.741500000000002,66.28399999999999,22.741500000000002C65.9862,23.377000000000002,65.5046,23.906599999999997,64.9026,24.2608C64.3006,24.6149,63.606300000000005,24.777,62.9113,24.7256C60.2693,24.7256,58.5155,22.6961,58.5155,19.2041C58.5155,15.712019999999999,60.1906,13.53515,63.0124,13.53515C63.725300000000004,13.49668,64.4325,13.68211,65.03659999999999,14.06589C65.6406,14.449670000000001,66.1118,15.0129,66.3851,15.678C66.3851,15.678,66.28399999999999,15.678,66.28399999999999,15.678C66.28399999999999,15.678,66.28399999999999,13.62585,66.28399999999999,13.62585C66.28399999999999,13.62585,69.85900000000001,13.62585,69.85900000000001,13.62585C69.85900000000001,13.62585,69.85900000000001,24.6689,69.85900000000001,24.6689C69.85900000000001,27.3333,67.5206,29,64.0805,29C60.9551,28.9887,58.954,27.5488,58.751599999999996,25.5193C58.751599999999996,25.5193,58.7291,25.5079,58.7291,25.5079C58.7291,25.5079,58.7291,25.5079,58.7291,25.5079ZM66.28399999999999,19.2041C66.28399999999999,17.424039999999998,65.4745,16.30159,64.19290000000001,16.30159C62.9113,16.30159,62.124300000000005,17.43537,62.124300000000005,19.2041C62.124300000000005,20.9728,62.9,22.015900000000002,64.19290000000001,22.015900000000002C65.4858,22.015900000000002,66.28399999999999,21.0522,66.28399999999999,19.2041C66.28399999999999,19.2041,66.28399999999999,19.2041,66.28399999999999,19.2041ZM71.2868,19.2041C71.2868,15.55329,73.5353,13.365079999999999,76.9079,13.365079999999999C80.28059999999999,13.365079999999999,82.5291,15.55329,82.5291,19.2041C82.5291,22.8549,80.3481,25.0658,76.9079,25.0658C73.4678,25.0658,71.30930000000001,22.9342,71.30930000000001,19.2041C71.30930000000001,19.2041,71.2868,19.2041,71.2868,19.2041C71.2868,19.2041,71.2868,19.2041,71.2868,19.2041ZM78.95400000000001,19.2041C78.95400000000001,17.19728,78.1671,16.01814,76.9417,16.01814C75.71629999999999,16.01814,74.9405,17.15193,74.9405,19.2041C74.9405,21.2562,75.705,22.378700000000002,76.9417,22.378700000000002C78.17830000000001,22.378700000000002,78.9765,21.2562,78.9765,19.215400000000002C78.9765,19.215400000000002,78.95400000000001,19.2041,78.95400000000001,19.2041C78.95400000000001,19.2041,78.95400000000001,19.2041,78.95400000000001,19.2041ZM83.9906,10.93878C83.97489999999999,10.56805,84.0695,10.20106,84.2624,9.885025C84.45519999999999,9.568989,84.7373,9.318356,85.07249999999999,9.165375C85.40780000000001,9.0123946,85.7807,8.9640628,86.1434,9.026593C86.506,9.0891233,86.84190000000001,9.259658,87.1077,9.516258C87.3734,9.772859,87.557,10.10379,87.6348,10.46647C87.7125,10.82916,87.68090000000001,11.20701,87.544,11.55142C87.407,11.89583,87.1711,12.19105,86.8664,12.399090000000001C86.5617,12.60713,86.20230000000001,12.71848,85.8343,12.718820000000001C85.5992,12.72485,85.3652,12.68371,85.146,12.5978C84.9267,12.5119,84.72659999999999,12.38293,84.55709999999999,12.21838C84.3877,12.053840000000001,84.2524,11.857,84.15899999999999,11.63928C84.0656,11.42157,84.01599999999999,11.18731,84.01310000000001,10.95011C84.01310000000001,10.95011,83.9906,10.93878,83.9906,10.93878C83.9906,10.93878,83.9906,10.93878,83.9906,10.93878ZM83.9906,13.61451C83.9906,13.61451,87.64439999999999,13.61451,87.64439999999999,13.61451C87.64439999999999,13.61451,87.64439999999999,24.7937,87.64439999999999,24.7937C87.64439999999999,24.7937,84.04679999999999,24.7937,84.04679999999999,24.7937C84.04679999999999,24.7937,83.9906,13.61451,83.9906,13.61451C83.9906,13.61451,83.9906,13.61451,83.9906,13.61451ZM100.78659999999999,19.2041C100.78659999999999,22.8435,99.1677,24.9524,96.4134,24.9524C95.7082,24.9962,95.0067,24.8208,94.40350000000001,24.4498C93.8004,24.078699999999998,93.3247,23.529899999999998,93.0407,22.8776C93.0407,22.8776,92.97319999999999,22.8776,92.97319999999999,22.8776C92.97319999999999,22.8776,92.97319999999999,28.3878,92.97319999999999,28.3878C92.97319999999999,28.3878,89.3644,28.3878,89.3644,28.3878C89.3644,28.3878,89.3644,13.648530000000001,89.3644,13.648530000000001C89.3644,13.648530000000001,92.9507,13.648530000000001,92.9507,13.648530000000001C92.9507,13.648530000000001,92.9507,15.643989999999999,92.9507,15.643989999999999C92.9507,15.643989999999999,93.01820000000001,15.643989999999999,93.01820000000001,15.643989999999999C93.29249999999999,14.97875,93.7635,14.41498,94.3671,14.029499999999999C94.97059999999999,13.64401,95.6773,13.455549999999999,96.3909,13.489799999999999C99.2239,13.467120000000001,100.8541,15.564630000000001,100.8541,19.215400000000002C100.8541,19.215400000000002,100.78659999999999,19.2041,100.78659999999999,19.2041C100.78659999999999,19.2041,100.78659999999999,19.2041,100.78659999999999,19.2041ZM97.1104,19.2041C97.1104,17.43537,96.28970000000001,16.29025,95.0193,16.29025C93.74889999999999,16.29025,92.9507,17.424039999999998,92.93950000000001,19.2041C92.9282,20.984099999999998,93.74889999999999,22.1066,95.0193,22.1066C96.28970000000001,22.1066,97.17779999999999,21.0522,97.17779999999999,19.215400000000002C97.17779999999999,19.215400000000002,97.1104,19.2041,97.1104,19.2041C97.1104,19.2041,97.1104,19.2041,97.1104,19.2041ZM106.9474,13.35374C109.9716,13.35374,111.8491,14.79365,111.8716,17.10658C111.8716,17.10658,108.5776,17.10658,108.5776,17.10658C108.5776,16.30159,107.9143,15.80272,106.9249,15.80272C105.9356,15.80272,105.4634,16.188209999999998,105.4634,16.76644C105.4634,17.34467,105.8794,17.52608,106.7113,17.69615C106.7113,17.69615,109.0272,18.172330000000002,109.0272,18.172330000000002C111.2757,18.64853,112.1751,19.5556,112.1751,21.2449C112.1751,23.5125,110.0953,25.0544,107.0036,25.0544C103.912,25.0544,101.89959999999999,23.5578,101.7535,21.2789C101.7535,21.2789,105.2498,21.2789,105.2498,21.2789C105.351,22.1066,106.0031,22.594099999999997,107.0598,22.594099999999997C108.1166,22.594099999999997,108.6113,22.253999999999998,108.6113,21.653100000000002C108.6113,21.0522,108.274,20.9501,107.4083,20.768700000000003C107.4083,20.768700000000003,105.3173,20.3265,105.3173,20.3265C103.14750000000001,19.8617,102.012,18.716549999999998,102.012,17.00454C102.0795,14.782309999999999,103.9682,13.365079999999999,107.0149,13.365079999999999C107.0149,13.365079999999999,106.9474,13.35374,106.9474,13.35374C106.9474,13.35374,106.9474,13.35374,106.9474,13.35374ZM124.2606,24.7823C124.2606,24.7823,120.7642,24.7823,120.7642,24.7823C120.7642,24.7823,120.7642,22.6848,120.7642,22.6848C120.7642,22.6848,120.6968,22.6848,120.6968,22.6848C120.501,23.3844,120.0748,23.9959,119.4883,24.4184C118.9017,24.840899999999998,118.1899,25.0493,117.4702,25.0091C116.9268,25.0269,116.3859,24.9287,115.8828,24.7208C115.3797,24.512900000000002,114.9259,24.2001,114.5511,23.8029C114.1764,23.4057,113.8892,22.9331,113.7083,22.416C113.5274,21.898899999999998,113.457,21.3492,113.5017,20.8027C113.5017,20.8027,113.5017,13.62585,113.5017,13.62585C113.5017,13.62585,117.1105,13.62585,117.1105,13.62585C117.1105,13.62585,117.1105,20.020400000000002,117.1105,20.020400000000002C117.1105,21.3356,117.7963,22.0499,118.9205,22.0499C119.1842,22.0479,119.4445,21.988799999999998,119.6837,21.8767C119.9229,21.7646,120.1354,21.602,120.307,21.4C120.4786,21.198,120.6052,20.961100000000002,120.6782,20.7055C120.7513,20.4499,120.7691,20.1815,120.7305,19.9184C120.7305,19.9184,120.7305,13.62585,120.7305,13.62585C120.7305,13.62585,124.328,13.62585,124.328,13.62585C124.328,13.62585,124.2606,24.7823,124.2606,24.7823C124.2606,24.7823,124.2606,24.7823,124.2606,24.7823ZM126.0031,13.61451C126.0031,13.61451,129.51069999999999,13.61451,129.51069999999999,13.61451C129.51069999999999,13.61451,129.51069999999999,15.768709999999999,129.51069999999999,15.768709999999999C129.51069999999999,15.768709999999999,129.5894,15.768709999999999,129.5894,15.768709999999999C129.7832,15.07862,130.1985,14.472809999999999,130.7701,14.04609C131.3417,13.61937,132.0375,13.39582,132.7485,13.41043C133.4623,13.34784,134.1736,13.55602,134.7433,13.994250000000001C135.313,14.43248,135.70010000000002,15.06925,135.8289,15.78004C135.8289,15.78004,135.9863,15.78004,135.9863,15.78004C136.211,15.06545,136.6634,14.445730000000001,137.27339999999998,14.017199999999999C137.88330000000002,13.58868,138.6165,13.37537,139.35899999999998,13.41043C139.85250000000002,13.391490000000001,140.3444,13.47786,140.80259999999998,13.6639C141.261,13.84993,141.675,14.13144,142.017,14.48998C142.36,14.84853,142.624,15.27604,142.792,15.744530000000001C142.959,16.21302,143.027,16.71194,142.99,17.20862C142.99,17.20862,142.99,24.7937,142.99,24.7937C142.99,24.7937,139.35899999999998,24.7937,139.35899999999998,24.7937C139.35899999999998,24.7937,139.35899999999998,18.13832,139.35899999999998,18.13832C139.35899999999998,17.00454,138.8306,16.36961,137.80759999999998,16.36961C137.58069999999998,16.365859999999998,137.35559999999998,16.41163,137.1479,16.503790000000002C136.9402,16.595950000000002,136.7547,16.73232,136.60410000000002,16.90355C136.4536,17.07478,136.3415,17.27682,136.2756,17.495820000000002C136.2097,17.71482,136.1916,17.9456,136.2224,18.172330000000002C136.2224,18.172330000000002,136.2224,24.7937,136.2224,24.7937C136.2224,24.7937,132.7822,24.7937,132.7822,24.7937C132.7822,24.7937,132.7822,18.104309999999998,132.7822,18.104309999999998C132.7822,16.97052,132.2314,16.36961,131.2421,16.36961C131.0128,16.36777,130.7858,16.41542,130.5762,16.50935C130.36669999999998,16.603279999999998,130.1796,16.74132,130.0273,16.9142C129.875,17.08709,129.7612,17.29083,129.6934,17.51174C129.6257,17.73264,129.6055,17.965609999999998,129.6344,18.19501C129.6344,18.19501,129.6344,24.7937,129.6344,24.7937C129.6344,24.7937,126.0256,24.7937,126.0256,24.7937C126.0256,24.7937,126.0031,13.61451,126.0031,13.61451C126.0031,13.61451,126.0031,13.61451,126.0031,13.61451Z" fill="#4A5D69" fill-opacity="1"/></g><g><g><path d="M34,11.0376C34.0001,8.8142,33.3107,6.64261,32.022,4.80726C30.7333,2.97191,28.9055,1.55838,26.778,0.751821C24.6504,-0.0547392,22.3223,-0.216723,20.0986,0.287085C17.8749,0.790894,15.8593,1.937,14.3158,3.57529C14.3158,3.57529,0,3.57529,0,3.57529C0,3.57529,0,33,0,33C0,33,30.226,33,30.226,33C30.226,33,30.226,19.2484,30.226,19.2484C31.4124,18.215,32.3617,16.9496,33.012,15.5349C33.6623,14.1201,33.9989,12.5877,34,11.0376C34,11.0376,34,11.0376,34,11.0376C34,11.0376,34,11.0376,34,11.0376ZM28.1842,11.0376C28.1865,12.103,27.8641,13.1452,27.258,14.0321C26.6518,14.919,25.7891,15.6109,24.779,16.0202C23.7689,16.4294,22.6569,16.5376,21.5836,16.3311C20.5103,16.1246,19.5241,15.6127,18.7497,14.8601C17.9753,14.1075,17.4475,13.1481,17.2333,12.1033C17.019,11.0586,17.1278,9.97534,17.546,8.99081C17.9641,8.00627,18.6728,7.16467,19.5822,6.57252C20.4917,5.98037,21.5612,5.66429,22.6552,5.66429C24.1196,5.66429,25.5242,6.23004,26.5608,7.23741C27.5973,8.24479,28.1812,9.61148,28.1842,11.0376C28.1842,11.0376,28.1842,11.0376,28.1842,11.0376C28.1842,11.0376,28.1842,11.0376,28.1842,11.0376ZM24.4103,27.3363C24.4103,27.3363,5.81579,27.3363,5.81579,27.3363C5.81579,27.3363,5.81579,9.23905,5.81579,9.23905C5.81579,9.23905,11.4825,9.23905,11.4825,9.23905C11.373,9.83275,11.3154,10.4344,11.3104,11.0376C11.3134,13.9669,12.5097,16.7753,14.6366,18.8466C16.7635,20.9179,19.6473,22.0829,22.6552,22.0858C23.2432,22.0828,23.8301,22.0342,24.4103,21.9406C24.4103,21.9406,24.4103,27.3363,24.4103,27.3363C24.4103,27.3363,24.4103,27.3363,24.4103,27.3363Z" fill="#4A5D69" fill-opacity="1"/></g><g><rect x="29" y="31" width="1" height="1" rx="0" fill="#4A5D69" fill-opacity="1"/></g></g></g></svg>