<svg xmlns="http://www.w3.org/2000/svg" xmlns:xlink="http://www.w3.org/1999/xlink" fill="none" version="1.1" width="179" height="178" viewBox="0 0 179 178"><g><g><g><path d="M0,2.5C0,1.11929,1.11929,0,2.5,0C2.5,0,16,0,16,0C16,0,16,16,16,16C16,16,0,16,0,16C0,16,0,2.5,0,2.5C0,2.5,0,2.5,0,2.5Z" fill="#CF4D16" fill-opacity="1"/></g><g><path d="M163,162C163,162,179,162,179,162C179,162,179,175.5,179,175.5C179,176.8807,177.8807,178,176.5,178C176.5,178,163,178,163,178C163,178,163,162,163,162C163,162,163,162,163,162Z" fill="#CF4D16" fill-opacity="1"/></g><g><path d="M177.29504976081847,176.304C177.29504976081847,176.304,1.7189337608184814,1.70908,1.7189337608184814,1.70908C1.0862437608184814,1.07993,1.5318037608184814,0,2.4240497608184812,0C2.4240497608184812,0,81.85814976081848,0,81.85814976081848,0C84.51024976081848,0,87.05384976081848,1.05357,88.92914976081848,2.92893C88.92914976081848,2.92893,176.07104976081848,90.0711,176.07104976081848,90.0711C177.94604976081848,91.9464,179.00004976081848,94.49,179.00004976081848,97.1421C179.00004976081848,97.1421,179.00004976081848,175.595,179.00004976081848,175.595C179.00004976081848,176.485,177.92604976081847,176.932,177.29504976081847,176.304C177.29504976081847,176.304,177.29504976081847,176.304,177.29504976081847,176.304Z" fill="#F58A07" fill-opacity="1"/></g></g><g><g transform="matrix(0.7071067690849304,0.7071067690849304,-0.7071067690849304,0.7071067690849304,65.20132651287963,-66.32702187552809)"><path d="M127.5422630432129,45.54145050048828C127.5422630432129,45.54145050048828,131.0543630432129,56.35075050048828,131.0543630432129,56.35075050048828C131.0543630432129,56.35075050048828,142.4199630432129,56.35075050048828,142.4199630432129,56.35075050048828C142.4199630432129,56.35075050048828,133.22506304321288,63.031250500488284,133.22506304321288,63.031250500488284C133.22506304321288,63.031250500488284,136.7371630432129,73.84055050048828,136.7371630432129,73.84055050048828C136.7371630432129,73.84055050048828,127.5422630432129,67.16005050048828,127.5422630432129,67.16005050048828C127.5422630432129,67.16005050048828,118.34725304321289,73.84055050048828,118.34725304321289,73.84055050048828C118.34725304321289,73.84055050048828,121.8594130432129,63.031250500488284,121.8594130432129,63.031250500488284C121.8594130432129,63.031250500488284,112.66446304321289,56.35075050048828,112.66446304321289,56.35075050048828C112.66446304321289,56.35075050048828,124.03006304321289,56.35075050048828,124.03006304321289,56.35075050048828C124.03006304321289,56.35075050048828,127.5422630432129,45.54145050048828,127.5422630432129,45.54145050048828C127.5422630432129,45.54145050048828,127.5422630432129,45.54145050048828,127.5422630432129,45.54145050048828Z" fill="#FFFFFF" fill-opacity="1"/></g><g transform="matrix(0.7071067690849304,0.7071067690849304,-0.7071067690849304,0.7071067690849304,44.32814220112738,-50.35133557432454)" style="opacity:0.4000000059604645;"><path d="M92.09649100921631,28.333131790161133C92.09649100921631,28.333131790161133,94.2572110092163,34.983161790161134,94.2572110092163,34.983161790161134C94.2572110092163,34.983161790161134,101.2495110092163,34.983161790161134,101.2495110092163,34.983161790161134C101.2495110092163,34.983161790161134,95.59261100921631,39.09313179016113,95.59261100921631,39.09313179016113C95.59261100921631,39.09313179016113,97.75341100921631,45.74313179016113,97.75341100921631,45.74313179016113C97.75341100921631,45.74313179016113,92.09649100921631,41.63323179016113,92.09649100921631,41.63323179016113C92.09649100921631,41.63323179016113,86.4396410092163,45.74313179016113,86.4396410092163,45.74313179016113C86.4396410092163,45.74313179016113,88.6003710092163,39.09313179016113,88.6003710092163,39.09313179016113C88.6003710092163,39.09313179016113,82.94351100921631,34.983161790161134,82.94351100921631,34.983161790161134C82.94351100921631,34.983161790161134,89.93577100921631,34.983161790161134,89.93577100921631,34.983161790161134C89.93577100921631,34.983161790161134,92.09649100921631,28.333131790161133,92.09649100921631,28.333131790161133C92.09649100921631,28.333131790161133,92.09649100921631,28.333131790161133,92.09649100921631,28.333131790161133Z" fill="#FFFFFF" fill-opacity="1"/></g><g transform="matrix(0.7071067690849304,0.7071067690849304,-0.7071067690849304,0.7071067690849304,97.79260863502748,-75.42597407893152)" style="opacity:0.4000000059604645;"><path d="M149.09649196289064,80.33313179016113C149.09649196289064,80.33313179016113,151.25721196289064,86.98316179016113,151.25721196289064,86.98316179016113C151.25721196289064,86.98316179016113,158.24951196289064,86.98316179016113,158.24951196289064,86.98316179016113C158.24951196289064,86.98316179016113,152.59261196289063,91.09313179016114,152.59261196289063,91.09313179016114C152.59261196289063,91.09313179016114,154.75341196289062,97.74313179016113,154.75341196289062,97.74313179016113C154.75341196289062,97.74313179016113,149.09649196289064,93.63323179016113,149.09649196289064,93.63323179016113C149.09649196289064,93.63323179016113,143.43964196289062,97.74313179016113,143.43964196289062,97.74313179016113C143.43964196289062,97.74313179016113,145.60037196289062,91.09313179016114,145.60037196289062,91.09313179016114C145.60037196289062,91.09313179016114,139.94351196289062,86.98316179016113,139.94351196289062,86.98316179016113C139.94351196289062,86.98316179016113,146.9357719628906,86.98316179016113,146.9357719628906,86.98316179016113C146.9357719628906,86.98316179016113,149.09649196289064,80.33313179016113,149.09649196289064,80.33313179016113C149.09649196289064,80.33313179016113,149.09649196289064,80.33313179016113,149.09649196289064,80.33313179016113Z" fill="#FFFFFF" fill-opacity="1"/></g></g></g></svg>