<svg xmlns="http://www.w3.org/2000/svg" xmlns:xlink="http://www.w3.org/1999/xlink" fill="none" version="1.1" width="38.00000762939453" height="34.00001525878906" viewBox="0 0 38.00000762939453 34.00001525878906"><g><path d="M31.2678,5.26873C34.4609,7.62616,34.9122,12.0463,32.2556,14.9421C32.2556,14.9421,19.0001,29.3913,19.0001,29.3913C19.0001,29.3913,5.74477,14.9437,5.74477,14.9437C3.08767,12.0476,3.53898,7.62685,6.73245,5.26912C10.00086,2.8560600000000003,14.7458,3.62579,16.9849,6.93227C16.9849,6.93227,17.736,8.041540000000001,17.736,8.041540000000001C18.1857,8.705639999999999,19.1174,8.89789,19.8169,8.470939999999999C20.036,8.3372,20.2063,8.158570000000001,20.3231,7.95588C20.3231,7.95588,21.0156,6.93282,21.0156,6.93282C23.2541,3.6258,27.9993,2.85557,31.2678,5.26873C31.2678,5.26873,31.2678,5.26873,31.2678,5.26873ZM19.0004,4.6906300000000005C15.6348,0.566014,9.31051,-0.25607,4.88378,3.01218C0.32546299999999995,6.37758,-0.31874,12.6877,3.47398,16.8215C3.47398,16.8215,17.8672,32.5094,17.8672,32.5094C18.4134,33.1047,19.3645,33.167,19.9916,32.648399999999995C20.0731,32.581,20.1451,32.5071,20.2075,32.4283C20.2075,32.4283,34.5265,16.8199,34.5265,16.8199C38.3186,12.6863,37.6744,6.37686,33.1165,3.01179C28.6898,-0.25644,22.3655,0.565938,19.0004,4.6906300000000005C19.0004,4.6906300000000005,19.0004,4.6906300000000005,19.0004,4.6906300000000005Z" fill-rule="evenodd" fill="#F58A07" fill-opacity="1"/><path d="M37.9476,9.52606Q37.4848,4.993869999999999,33.7105,2.20729Q30.0842,-0.46992999999999996,25.5389,0.08626699999999998Q21.618,0.566055,19.0003,3.19759Q16.3824,0.5661320000000001,12.4614,0.08647899999999997Q7.91605,-0.46956,4.289820000000001,2.20768Q0.5151479999999999,4.99452,0.052412000000000014,9.52713Q-0.41100000000000003,14.0663,2.73713,17.4976L17.1303,33.1854Q18.7615,34.9633,20.6289,33.419Q20.8147,33.2654,20.9657,33.0811L35.2634,17.4959Q38.411,14.0648,37.9476,9.52606ZM25.7818,2.07146Q29.5369,1.611966,32.5225,3.81628Q35.585,6.0773,35.9579,9.72923Q36.3301,13.3746,33.7896,16.143900000000002L19.4706,31.7523Q19.4461,31.779,19.4235,31.8075Q19.3936,31.8453,19.3543,31.8778Q18.9509,32.2114,18.6041,31.8334L4.21083,16.145400000000002Q1.669876,13.376,2.04207,9.73025Q2.41494,6.07794,5.47774,3.81668Q8.463470000000001,1.6123159999999999,12.2186,2.0716799999999997Q15.9447,2.5274900000000002,18.2256,5.32284Q18.2897,5.40139,18.3682,5.46547Q18.4446,5.52773,18.5316,5.57391Q18.6186,5.62009,18.7129,5.64841Q18.8072,5.67672,18.9053,5.68609Q19.0033,5.69546,19.1013,5.68552Q19.1993,5.67559,19.2935,5.64672Q19.3876,5.61786,19.4743,5.57118Q19.5611,5.5245,19.637,5.4618Q19.713,5.3991,19.7752,5.32278Q22.0558,2.52739,25.7818,2.07146ZM25.5952,2.96862Q22.1083,3.53461,20.1875,6.37227L19.495,7.39533Q19.4747,7.42527,19.4567,7.45659Q19.401,7.55325,19.2959,7.61737Q18.8435,7.89353,18.564,7.48087L17.8129,6.37155Q15.8916,3.53441,12.4048,2.96877Q8.92841,2.40483,6.13849,4.46462Q3.38745,6.4957,3.04982,9.80296Q2.71151,13.1168,5.00791,15.6197L18.2632,30.0673Q18.2924,30.0991,18.3241,30.1282Q18.4707,30.2627,18.6575,30.3308Q18.8444,30.3989,19.0431,30.3904Q19.2419,30.3818,19.4222,30.2978Q19.6025,30.2139,19.737,30.0673L32.9925,15.6181Q35.2885,13.1154,34.9502,9.80194Q34.6125,6.49507,31.8618,4.46424Q29.0717,2.40433,25.5952,2.96862ZM21.169,8.4902L21.8437,7.49337Q23.2807,5.37049,25.9157,4.9427900000000005Q28.5611,4.513389999999999,30.6738,6.07322Q32.7127,7.57851,32.960499999999996,10.00511Q33.2076,12.4251,31.5187,14.2661L19.0001,27.9121L6.48163,14.2677Q4.79238,12.4265,5.03948,10.00608Q5.28724,7.57913,7.32641,6.07361Q9.4391,4.51382,12.0845,4.942959999999999Q14.7195,5.37041,16.1569,7.49298L16.908,8.60221Q18.2571,10.59455,20.3379,9.3245Q20.8612,9.00508,21.169,8.4902Z" fill-rule="evenodd" fill="#F58A07" fill-opacity="1"/></g></svg>