<svg xmlns="http://www.w3.org/2000/svg" xmlns:xlink="http://www.w3.org/1999/xlink" fill="none" version="1.1" width="140" height="32" viewBox="0 0 140 32"><g><g><path d="M30.4376,11C30.8357,11,30.9684,11.142147,30.9684,11.52485C30.9684,11.52485,30.9684,20.18489,30.9684,20.18489C30.9684,20.18489,35.46919,20.18489,35.46919,20.18489C35.85624,20.18489,36,20.32704,36,20.70974C36,20.70974,36,21.4752,36,21.4752C36,21.8579,35.85624,22,35.46919,22C35.46919,22,29.541862,22,29.541862,22C29.154816,22,29,21.8579,29,21.4752C29,21.4752,29,11.52485,29,11.52485C29,11.142147,29.154816,11,29.541862,11C29.541862,11,30.4376,11,30.4376,11C30.4376,11,30.4376,11,30.4376,11Z" fill="#4A5D69" fill-opacity="1"/></g><g><path d="M40,14.88359C40,12.45897,41.6425,11,44.5,11C47.3575,11,49,12.45897,49,14.88359C49,14.88359,49,18.116410000000002,49,18.116410000000002C49,20.54103,47.34625,22,44.5,22C41.65375,22,40,20.54103,40,18.116410000000002C40,18.116410000000002,40,14.88359,40,14.88359C40,14.88359,40,14.88359,40,14.88359ZM47.11,14.88359C47.11,13.51908,46.198750000000004,12.78435,44.55625,12.78435C42.91375,12.78435,42.01375,13.52958,42.01375,14.88359C42.01375,14.88359,42.01375,18.1374,42.01375,18.1374C42.01375,19.5124,42.91375,20.23664,44.55625,20.23664C46.198750000000004,20.23664,47.11,19.480919999999998,47.11,18.1374C47.11,18.1374,47.11,14.88359,47.11,14.88359C47.11,14.88359,47.11,14.88359,47.11,14.88359Z" fill="#4A5D69" fill-opacity="1"/></g><g><path d="M62.463139999999996,15.49133C62.89858,15.49133,62.99906,15.640049999999999,62.99906,16.04046C62.99906,16.04046,62.99906,18.214109999999998,62.99906,18.214109999999998C63.01089,18.72611,62.910740000000004,19.23432,62.70595,19.7015C62.50116,20.1687,62.19693,20.583,61.81557,20.914C60.86842,21.686799999999998,59.67421,22.0702,58.46604,21.9894C55.57428,21.9894,54,20.3992,54,17.7565C54,17.7565,54,14.21002,54,14.21002C54,11.60164,55.6301,10,58.46604,10C60.69906,10,62.15052,10.903784,62.7646,12.71135C62.79895,12.77926,62.81737,12.85445,62.81839,12.93094C62.81942,13.00742,62.803020000000004,13.0831,62.7705,13.151959999999999C62.73798,13.22081,62.69025,13.28095,62.63108,13.32759C62.57191,13.37423,62.50294,13.406089999999999,62.42965,13.42064C62.42965,13.42064,61.55877,13.72953,61.55877,13.72953C61.17916,13.866810000000001,61.02284,13.78673,60.88886,13.38632C60.70391,12.89766,60.36527,12.48613,59.92647,12.21678C59.48768,11.94743,58.97378,11.83564,58.46604,11.89908C56.82477,11.89908,55.93157,12.71134,55.93157,14.18714C55.93157,14.18714,55.93157,17.82514,55.93157,17.82514C55.93157,19.323819999999998,56.83593,20.1132,58.46604,20.1132C60.09614,20.1132,61.101,19.3467,61.101,18.22555C61.101,18.22555,61.101,17.37897,61.101,17.37897C61.101,17.37897,58.67818,17.37897,58.67818,17.37897C58.27623,17.37897,58.13108,17.21881,58.13108,16.8184C58.13108,16.8184,58.13108,16.04046,58.13108,16.04046C58.13108,15.640049999999999,58.27623,15.49133,58.67818,15.49133C58.67818,15.49133,62.463139999999996,15.49133,62.463139999999996,15.49133C62.463139999999996,15.49133,62.463139999999996,15.49133,62.463139999999996,15.49133Z" fill="#4A5D69" fill-opacity="1"/></g><g><path d="M68,14.88359C68,12.45897,69.6425,11,72.5,11C75.3575,11,77,12.45897,77,14.88359C77,14.88359,77,18.116410000000002,77,18.116410000000002C77,20.54103,75.34625,22,72.5,22C69.65375,22,68,20.54103,68,18.116410000000002C68,18.116410000000002,68,14.88359,68,14.88359C68,14.88359,68,14.88359,68,14.88359ZM75.09875,14.88359C75.09875,13.51908,74.18749,12.78435,72.55624,12.78435C70.92499,12.78435,70.0025,13.52958,70.0025,14.88359C70.0025,14.88359,70.0025,18.1374,70.0025,18.1374C70.0025,19.5124,70.91374,20.23664,72.55624,20.23664C74.19874,20.23664,75.09875,19.480919999999998,75.09875,18.1374C75.09875,18.1374,75.09875,14.88359,75.09875,14.88359C75.09875,14.88359,75.09875,14.88359,75.09875,14.88359Z" fill="#4A5D69" fill-opacity="1"/></g><g><path d="M82,11.317098C82,11.0765417,82.0686286,11,82.284316,11C82.284316,11,82.735297,11,82.735297,11C82.950984,11,83,11.0765417,83,11.317098C83,11.317098,83,21.6829,83,21.6829C83,21.9235,83,22,82.735297,22C82.735297,22,82.284316,22,82.284316,22C82.0686286,22,82,21.9235,82,21.6829C82,21.6829,82,11.317098,82,11.317098C82,11.317098,82,11.317098,82,11.317098Z" fill="#4A5D69" fill-opacity="1"/></g><g><path d="M93.49162,11C94.4221,11.000000000000016,95.31447,11.361733,95.97242,12.00562C96.63037,12.64951,97,13.5228,97,14.433399999999999C97,15.34399,96.63037,16.21729,95.97242,16.86118C95.31447,17.50507,94.4221,17.866799999999998,93.49162,17.866799999999998C93.49162,17.866799999999998,90.13966,17.866799999999998,90.13966,17.866799999999998C90.13966,17.866799999999998,90.13966,21.6829,90.13966,21.6829C90.13966,21.9235,90.0838,22,89.849165,22C89.849165,22,89.324024,22,89.324024,22C89.0893866,22,89,21.9235,89,21.6829C89,21.6829,89,11.317098,89,11.317098C89,11.0765417,89.0893866,11,89.324024,11C89.324024,11,93.49162,11,93.49162,11C93.49162,11,93.49162,11,93.49162,11ZM93.39106,16.78429C93.71093,16.78429,94.02767,16.72264,94.32319,16.60285C94.61871,16.48305,94.88722,16.307470000000002,95.1134,16.08612C95.33958,15.86478,95.519,15.602,95.6414,15.3128C95.76381,15.0236,95.82682,14.71363,95.82682,14.4006C95.82682,14.08756,95.76381,13.7776,95.6414,13.488389999999999C95.519,13.19919,95.33958,12.93642,95.1134,12.71507C94.88722,12.49372,94.61871,12.31814,94.32319,12.19835C94.02767,12.07856,93.71093,12.0169,93.39106,12.0169C93.39106,12.0169,90.03911,12.0169,90.03911,12.0169C90.03911,12.0169,90.03911,16.78429,90.03911,16.78429C90.03911,16.78429,93.39106,16.78429,93.39106,16.78429C93.39106,16.78429,93.39106,16.78429,93.39106,16.78429Z" fill="#4A5D69" fill-opacity="1"/></g><g><path d="M106.469,11.02275C107.36801,10.9337852,108.27504,11.107212,109.05538,11.517271000000001C109.83573,11.927331,110.44775,12.55215,110.80058,13.29893C110.89373,13.46599,110.80058,13.60173,110.61428000000001,13.68526C110.61428000000001,13.68526,110.10194,13.89408,110.10194,13.89408C109.89234,13.96717,109.81083,13.95673,109.68275,13.75835C109.41895,13.20411,108.9654,12.73948,108.38767,12.43165C107.80994,12.12383,107.13799,11.988761,106.469,12.04599C104.50116,12.04599,103.42991,12.74555,103.42991,13.99849C103.41849,14.381409999999999,103.56191,14.75511,103.8337,15.05064C104.10549,15.34617,104.4873,15.543569999999999,104.9087,15.60644C105.53496,15.78958,106.18430000000001,15.90182,106.84161,15.94056C107.6373,15.97861,108.42221,16.122889999999998,109.17042000000001,16.36865C109.74402,16.531390000000002,110.23769,16.8662,110.56847,17.31682C110.89925,17.76744,111.047,18.30643,110.98688,18.84321C110.98688,20.79571,109.4033,21.9756,106.49229,21.9756C105.53748,22.0735,104.57406,21.8751,103.76258,21.4134C102.951088,20.95177,102.340525,20.25469,102.0326184,19.43836C102.0120745,19.401139999999998,102.000961443,19.36031,102.0000596461,19.31879C101.999157849,19.27727,102.0084915,19.23609,102.0274037,19.19818C102.0463158,19.16027,102.0743322,19.12658,102.109453,19.099510000000002C102.144575,19.07244,102.185938,19.05266,102.230574,19.04159C102.230574,19.04159,102.742905,18.87453,102.742905,18.87453C102.783262,18.85975,102.826612,18.85265,102.870191,18.8537C102.91377,18.85474,102.956626,18.8639,102.996046,18.880589999999998C103.03547,18.897280000000002,103.07058,18.92114,103.09917,18.95066C103.12775,18.98017,103.14918,19.014699999999998,103.16209,19.052030000000002C103.42256,19.64188,103.88576,20.142020000000002,104.48454,20.47994C105.08331,20.81787,105.78654,20.976010000000002,106.49229,20.931449999999998C108.69301,20.931449999999998,109.77590000000001,20.242330000000003,109.77590000000001,18.84321C109.7964,18.47543,109.67074,18.11305,109.42128,17.820529999999998C109.17183,17.528019999999998,108.81475,17.32433,108.41355,17.24571C107.81106,17.08455,107.18979,16.986449999999998,106.56215,16.95335C106.56215,16.95335,105.3046,16.80717,105.3046,16.80717C104.91104,16.73226,104.52232,16.63815,104.14019,16.52526C103.76274,16.42303,103.41086,16.2564,103.10388,16.03453C102.795016,15.78371,102.551462,15.47504,102.39048,15.1304C102.229499,14.78576,102.155028,14.41359,102.17235,14.04026C102.253858,12.213049999999999,103.77923,11.02275,106.469,11.02275C106.469,11.02275,106.469,11.02275,106.469,11.02275Z" fill="#4A5D69" fill-opacity="1"/></g><g><path d="M116.21653,18.11198C116.2667,18.869419999999998,116.63386,19.58092,117.24301,20.10115C117.85216,20.621380000000002,118.65733,20.91108,119.49409,20.91108C120.33084,20.91108,121.13604,20.621380000000002,121.74519,20.10115C122.35434,19.58092,122.7215,18.869419999999998,122.77166,18.11198C122.77166,18.11198,122.77166,11.310614,122.77166,11.310614C122.77166,11.0749766,122.85433,11,123.11417,11C123.11417,11,123.65749,11,123.65749,11C123.91732999999999,11,124,11.0749766,124,11.310614C124,11.310614,124,18.10127,124,18.10127C124,20.53262,122.41732,22,119.5,22C116.58268,22,115,20.53262,115,18.10127C115,18.10127,115,11.310614,115,11.310614C115,11.0749766,115.0826758,11,115.330707,11C115.330707,11,115.885827,11,115.885827,11C116.13386,11,116.21653,11.0749766,116.21653,11.310614C116.21653,11.310614,116.21653,18.11198,116.21653,18.11198C116.21653,18.11198,116.21653,18.11198,116.21653,18.11198Z" fill="#4A5D69" fill-opacity="1"/></g><g><path d="M139.68201,11.00188702C139.92324,11.00188702,140,11.0784156,140,11.318931C140,11.318931,140,21.683,140,21.683C140,21.9235,139.92324,22,139.68201,22C139.68201,22,139.22149,22,139.22149,22C138.99122,22,138.91447,21.9235,138.91447,21.683C138.91447,21.683,138.91447,15.37489,138.91447,15.37489C138.91425,14.45705,138.97653,13.54026,139.10087,12.63083C139.10087,12.63083,139.03508,12.63083,139.03508,12.63083C138.69252,13.46247,138.29319,14.26972,137.83991,15.04692C137.83991,15.04692,135.48245,19.19034,135.48245,19.19034C135.45362,19.26222,135.4036,19.32369,135.339,19.36663C135.27439,19.409570000000002,135.19824,19.43197,135.12061,19.43086C135.12061,19.43086,134.81359,19.43086,134.81359,19.43086C134.73473,19.43123,134.65746000000001,19.40868,134.59125,19.36597C134.52504,19.32325,134.47276,19.26222,134.44079,19.19034C134.44079,19.19034,132.05045,15.00319,132.05045,15.00319C131.62592,14.2371,131.2594,13.44045,130.953958,12.6199C130.953958,12.6199,130.888154,12.6199,130.888154,12.6199C131.00049,13.53769,131.05908,14.46124,131.0636,15.38583C131.0636,15.38583,131.0636,21.683,131.0636,21.683C131.0636,21.9235,130.98685,22,130.745622,22C130.745622,22,130.317991,22,130.317991,22C130.0767637,22,130,21.9235,130,21.683C130,21.683,130,11.318931,130,11.318931C130,11.0784156,130.0767637,11.00188702,130.317991,11.00188702C130.317991,11.00188702,130.712729,11.00188702,130.712729,11.00188702C130.802929,10.99350553,130.89351,11.0131804,130.972044,11.0582044C131.05058,11.103228,131.11321,11.171392,131.15132,11.253334C131.15132,11.253334,134.98903,18.053359999999998,134.98903,18.053359999999998C134.98903,18.053359999999998,138.80481,11.318931,138.80481,11.318931C138.92543,11.0893482,138.99122,11.0565488,139.23244,11.0565488C139.23244,11.0565488,139.68201,11.00188702,139.68201,11.00188702C139.68201,11.00188702,139.68201,11.00188702,139.68201,11.00188702Z" fill="#4A5D69" fill-opacity="1"/></g><g><g><path d="M10.2588,19.9817C10.2588,19.9817,10.2588,28.1025,10.2588,28.1025C10.2588,28.4138,10.1294,28.7123,9.89914,28.9325C9.66884,29.1526,9.3565,29.2762,9.03081,29.2762C8.70512,29.2762,8.39278,29.1526,8.16248,28.9325C7.93219,28.7123,7.80281,28.4138,7.80281,28.1025C7.80281,28.1025,7.80281,19.993,7.80281,19.993C8.14472,20.2316,8.55469,20.3649,8.97793,20.3749C9.43933,20.3875,9.89134,20.2487,10.2588,19.9817C10.2588,19.9817,10.2588,19.9817,10.2588,19.9817C10.2588,19.9817,10.2588,19.9817,10.2588,19.9817ZM20.7174,17.6343C20.4057,17.6343,20.1068,17.7526,19.8865,17.9632C19.6661,18.1739,19.5423,18.4596,19.5423,18.7575C19.5423,18.7575,19.5423,20.1727,19.5423,20.1727C19.5423,20.484,19.6716,20.7825,19.9019,21.0027C20.1322,21.2228,20.4446,21.3464,20.7703,21.3464C21.096,21.3464,21.4083,21.2228,21.6386,21.0027C21.8689,20.7825,21.9983,20.484,21.9983,20.1727C21.9983,20.1727,21.9983,18.8136,21.9983,18.8136C22.0074,18.6526,21.9802,18.4915,21.9184,18.3414C21.8566,18.1913,21.7617,18.0557,21.6401,17.9438C21.5186,17.8319,21.3733,17.7464,21.2141,17.6929C21.0548,17.6395,20.8854,17.6195,20.7174,17.6343C20.7174,17.6343,20.7174,17.6343,20.7174,17.6343C20.7174,17.6343,20.7174,17.6343,20.7174,17.6343ZM5.13528,23.0593C4.71243,23.0472,4.3031,22.9142,3.96016,22.6774C3.96016,22.6774,3.96016,30.8206,3.96016,30.8206C3.96016,31.1334,4.09016,31.4334,4.32155,31.6546C4.55295,31.8757,4.86679,32,5.19404,32C5.52128,32,5.83513,31.8757,6.06652,31.6546C6.29792,31.4334,6.42792,31.1334,6.42792,30.8206C6.42792,30.8206,6.42792,22.7336,6.42792,22.7336C6.04418,22.9707,5.59142,23.0848,5.13528,23.0593C5.13528,23.0593,5.13528,23.0593,5.13528,23.0593C5.13528,23.0593,5.13528,23.0593,5.13528,23.0593ZM16.8865,15.1969C16.7273,15.1893,16.5682,15.2127,16.4187,15.2657C16.2693,15.3188,16.1327,15.4003,16.0173,15.5054C15.9019,15.6104,15.81,15.7368,15.7473,15.8769C15.6846,16.017,15.6524,16.1678,15.6526,16.3201C15.6526,16.3201,15.6526,22.5763,15.6526,22.5763C15.6526,22.8891,15.7826,23.1891,16.014,23.4103C16.2454,23.6315,16.5593,23.7557,16.8865,23.7557C17.2137,23.7557,17.5276,23.6315,17.759,23.4103C17.9904,23.1891,18.1204,22.8891,18.1204,22.5763C18.1204,22.5763,18.1204,16.3987,18.1204,16.3987C18.1297,16.2366,18.1022,16.0745,18.0398,15.9236C17.9773,15.7726,17.8813,15.6364,17.7584,15.5243C17.6356,15.4122,17.4887,15.3269,17.3281,15.2743C17.1674,15.2216,16.9967,15.2029,16.8277,15.2194C16.8277,15.2194,16.8865,15.1969,16.8865,15.1969C16.8865,15.1969,16.8865,15.1969,16.8865,15.1969ZM12.9851,17.6006C12.5425,17.5977,12.1116,17.4643,11.7512,17.2187C11.7512,17.2187,11.7512,25.3843,11.7512,25.3843C11.7512,25.6971,11.8812,25.9971,12.1126,26.2183C12.344,26.4395,12.6578,26.5637,12.9851,26.5637C13.3123,26.5637,13.6262,26.4395,13.8576,26.2183C14.089,25.9971,14.219,25.6971,14.219,25.3843C14.219,25.3843,14.219,17.2299,14.219,17.2299C13.8462,17.4953,13.3911,17.6337,12.9263,17.623C12.9263,17.623,12.9851,17.6006,12.9851,17.6006C12.9851,17.6006,12.9851,17.6006,12.9851,17.6006ZM2.46776,23.8568C2.46776,23.8568,2.46776,1.04458,2.46776,1.04458C2.46466,0.76651,2.34692,0.500841,2.1401,0.305261C1.93328,0.109682,1.65408,-0.0000157345,1.36314,1.69279e-9C1.36314,1.69279e-9,1.10461,1.69279e-9,1.10461,1.69279e-9C0.813678,-0.0000157345,0.534482,0.109682,0.327661,0.305261C0.12084,0.500841,0.00309508,0.76651,0,1.04458C0,1.04458,0,23.8568,0,23.8568C8.34974e-15,24.1368,0.116379,24.4054,0.323534,24.6034C0.53069,24.8014,0.811653,24.9126,1.10461,24.9126C1.10461,24.9126,1.36314,24.9126,1.36314,24.9126C1.6561,24.9126,1.93707,24.8014,2.14422,24.6034C2.35138,24.4054,2.46776,24.1368,2.46776,23.8568C2.46776,23.8568,2.46776,23.8568,2.46776,23.8568C2.46776,23.8568,2.46776,23.8568,2.46776,23.8568ZM5.26455,22.1945C5.26455,22.1945,5.00602,22.1945,5.00602,22.1945C4.71306,22.1945,4.43209,22.0832,4.22494,21.8852C4.01778,21.6872,3.90141,21.4187,3.90141,21.1386C3.90141,21.1386,3.90141,3.76273,3.90141,3.76273C3.9045,3.48466,4.02224,3.21899,4.22906,3.02341C4.43588,2.82783,4.71508,2.71813,5.00602,2.71815C5.00602,2.71815,5.26455,2.71815,5.26455,2.71815C5.55548,2.71813,5.83468,2.82783,6.0415,3.02341C6.24832,3.21899,6.36607,3.48466,6.36916,3.76273C6.36916,3.76273,6.36916,21.1611,6.36916,21.1611C6.36916,21.4411,6.25278,21.7097,6.04562,21.9077C5.83847,22.1057,5.55751,22.2169,5.26455,22.2169C5.26455,22.2169,5.26455,22.1945,5.26455,22.1945C5.26455,22.1945,5.26455,22.1945,5.26455,22.1945ZM9.1542,19.5212C9.1542,19.5212,8.88392,19.5212,8.88392,19.5212C8.59407,19.5212,8.3161,19.4112,8.11115,19.2153C7.9062,19.0194,7.79106,18.7537,7.79106,18.4767C7.79106,18.4767,7.79106,6.45841,7.79106,6.45841C7.7895,6.32029,7.81662,6.18325,7.87085,6.05521C7.92507,5.92718,8.00533,5.8107,8.10696,5.71251C8.2086,5.61432,8.3296,5.53637,8.46296,5.48317C8.59633,5.42998,8.73941,5.40259,8.88392,5.4026C8.88392,5.4026,9.1542,5.4026,9.1542,5.4026C9.44512,5.40556,9.72307,5.5181,9.92769,5.71578C10.1323,5.91347,10.2471,6.18032,10.2471,6.45841C10.2471,6.45841,10.2471,18.4767,10.2471,18.4767C10.2471,18.7537,10.1319,19.0194,9.92697,19.2153C9.72201,19.4112,9.44404,19.5212,9.1542,19.5212C9.1542,19.5212,9.1542,19.5212,9.1542,19.5212C9.1542,19.5212,9.1542,19.5212,9.1542,19.5212ZM13.0439,16.7694C13.0439,16.7694,12.7971,16.7694,12.7971,16.7694C12.5061,16.7694,12.2269,16.6597,12.0201,16.4641C11.8133,16.2686,11.6956,16.0029,11.6925,15.7248C11.6925,15.7248,11.6925,9.25518,11.6925,9.25518C11.6828,9.11096,11.7042,8.96639,11.7554,8.83041C11.8066,8.69443,11.8864,8.56995,11.99,8.46465C12.0935,8.35936,12.2186,8.2755,12.3574,8.21828C12.4962,8.16106,12.6459,8.13168,12.7971,8.13198C12.7971,8.13198,13.0556,8.13198,13.0556,8.13198C13.3486,8.13198,13.6295,8.24321,13.8367,8.44121C14.0438,8.63922,14.1602,8.90777,14.1602,9.18778C14.1602,9.18778,14.1602,15.7024,14.1602,15.7024C14.1618,15.8419,14.1343,15.9804,14.0795,16.1098C14.0247,16.2392,13.9436,16.357,13.8409,16.4562C13.7381,16.5554,13.6158,16.6342,13.4811,16.688C13.3463,16.7417,13.2017,16.7694,13.0556,16.7694C13.0556,16.7694,13.0439,16.7694,13.0439,16.7694C13.0439,16.7694,13.0439,16.7694,13.0439,16.7694ZM16.9453,14.3545C16.9453,14.3545,16.6867,14.3545,16.6867,14.3545C16.3938,14.3545,16.1128,14.2433,15.9056,14.0453C15.6985,13.8473,15.5821,13.5787,15.5821,13.2987C15.5821,13.2987,15.5821,11.6251,15.5821,11.6251C15.5852,11.3471,15.7029,11.0814,15.9098,10.8858C16.1166,10.6902,16.3958,10.5805,16.6867,10.5806C16.6867,10.5806,16.9453,10.5806,16.9453,10.5806C17.2362,10.5805,17.5154,10.6902,17.7222,10.8858C17.929,11.0814,18.0468,11.3471,18.0499,11.6251C18.0499,11.6251,18.0499,13.2987,18.0499,13.2987C18.0499,13.5768,17.9351,13.8436,17.7305,14.0413C17.5259,14.239,17.2479,14.3516,16.957,14.3545C16.957,14.3545,16.9453,14.3545,16.9453,14.3545C16.9453,14.3545,16.9453,14.3545,16.9453,14.3545Z" fill="#4A5D69" fill-opacity="1"/></g><g><rect x="5" y="30" width="1" height="1" rx="0" fill="#4A5D69" fill-opacity="1"/></g></g></g></svg>