<svg xmlns="http://www.w3.org/2000/svg" xmlns:xlink="http://www.w3.org/1999/xlink" fill="none" version="1.1" width="122" height="28" viewBox="0 0 122 28"><g><path d="M118.45,3.51792C118.45,3.51792,118.45,10.0513,118.45,10.0513C118.45,10.0513,120.867,10.0513,120.867,10.0513C120.867,10.0513,120.867,13.2103,120.867,13.2103C120.867,13.2103,118.45,13.2103,118.45,13.2103C118.45,13.2103,118.45,19.0974,118.45,19.0974C118.45,19.6718,118.601,20.1025,118.903,20.3897C119.205,20.6769,119.659,20.8205,120.263,20.8205C120.565,20.8205,122,20.8205,122,20.8205C122,20.8205,122,24.5538,122,24.5538C122,24.5538,119.356,24.5538,118.978,24.5538C117.77,24.5538,116.259,24.3385,115.201,23.4051C114.144,22.4718,113.691,21.2513,113.691,19.5282C113.691,19.5282,113.691,13.1385,113.691,13.1385C113.691,13.1385,111.5,13.1385,111.5,13.1385C111.5,13.1385,111.5,9.97947,111.5,9.97947C111.5,9.97947,113.691,9.97947,113.691,9.97947C113.691,9.97947,113.691,3.51792,113.691,3.51792C113.691,3.51792,118.45,3.51792,118.45,3.51792C118.45,3.51792,118.45,3.51792,118.45,3.51792ZM104.324,24.841C102.133,24.841,100.244,24.1231,98.96,22.8308C97.6001,21.5385,96.9958,19.8154,96.9958,17.8051C96.9958,17.8051,96.9958,17.3026,96.9958,17.3026C96.9958,15.0769,97.6001,13.282,98.8088,11.8462C100.017,10.4821,101.755,9.7641,104.021,9.7641C106.061,9.7641,107.723,10.3384,108.856,11.4872C110.065,12.7077,110.593,14.2872,110.593,16.2975C110.593,16.2975,110.593,18.6666,110.593,18.6666C110.593,18.6666,101.906,18.6666,101.906,18.6666C101.906,18.6666,101.906,18.7384,101.906,18.7384C101.982,19.5282,102.359,20.0308,102.888,20.5333C103.417,21.0359,104.172,21.2513,105.003,21.2513C105.91,21.2513,106.59,21.1795,107.119,21.0359C107.647,20.8923,108.403,20.6769,109.158,20.318C109.158,20.318,110.291,23.1179,110.291,23.1179C109.611,23.6205,108.78,23.9795,107.723,24.3385C106.665,24.6974,105.457,24.841,104.324,24.841C104.324,24.841,104.324,24.841,104.324,24.841ZM103.946,13.2103C103.266,13.2103,102.737,13.4256,102.435,13.9282C102.133,14.4308,101.906,15.0769,101.83,15.7949C101.83,15.7949,101.906,15.8667,101.906,15.8667C101.906,15.8667,105.985,15.8667,105.985,15.8667C105.985,15.8667,105.985,15.5077,105.985,15.5077C105.985,14.7179,105.834,14.2154,105.532,13.8564C105.079,13.3539,104.625,13.2103,103.946,13.2103C103.946,13.2103,103.946,13.2103,103.946,13.2103ZM88.3841,24.841C86.1934,24.841,84.3046,24.1231,83.0206,22.8308C81.7366,21.5385,81.0564,19.8154,81.0564,17.8051C81.0564,17.8051,81.0564,17.3026,81.0564,17.3026C81.0564,15.0769,81.6607,13.282,82.8694,11.8462C84.078,10.4821,85.8156,9.7641,88.0817,9.7641C90.1217,9.7641,91.7835,10.3384,92.9168,11.4872C94.0496,12.6359,94.6539,14.2872,94.6539,16.2975C94.6539,16.2975,94.6539,18.6666,94.6539,18.6666C94.6539,18.6666,85.9668,18.6666,85.9668,18.6666C85.9668,18.6666,85.9668,18.7384,85.9668,18.7384C86.0422,19.5282,86.4199,20.0308,86.9489,20.5333C87.4774,21.0359,88.2329,21.2513,89.0638,21.2513C89.9705,21.2513,90.6502,21.1795,91.1792,21.0359C91.7081,20.8923,92.4631,20.6769,93.2187,20.318C93.2187,20.318,94.352,23.1179,94.352,23.1179C93.6718,23.6205,92.8409,23.9795,91.7835,24.3385C90.8014,24.6974,89.5927,24.841,88.3841,24.841C88.3841,24.841,88.3841,24.841,88.3841,24.841ZM88.0817,13.2103C87.402,13.2103,86.873,13.4256,86.5712,13.9282C86.2687,14.4308,86.0422,15.0769,85.9668,15.7949C85.9668,15.7949,86.0422,15.8667,86.0422,15.8667C86.0422,15.8667,90.1217,15.8667,90.1217,15.8667C90.1217,15.8667,90.1217,15.5077,90.1217,15.5077C90.1217,14.7179,89.9705,14.2154,89.6681,13.8564C89.215,13.3539,88.7619,13.2103,88.0817,13.2103C88.0817,13.2103,88.0817,13.2103,88.0817,13.2103ZM73.9558,18.3795C73.9558,18.3795,75.6175,9.90771,75.6175,9.90771C75.6175,9.90771,79.9231,9.90771,79.9231,9.90771C79.9231,9.90771,76.4484,24.482,76.4484,24.482C76.4484,24.482,72.4447,24.482,72.4447,24.482C72.4447,24.482,69.9521,16.7282,69.9521,16.7282C69.9521,16.7282,69.8762,16.7282,69.8762,16.7282C69.8762,16.7282,67.3836,24.482,67.3836,24.482C67.3836,24.482,63.3799,24.482,63.3799,24.482C63.3799,24.482,59.8293,9.97947,59.8293,9.97947C59.8293,9.97947,64.2108,9.97947,64.2108,9.97947C64.2108,9.97947,65.8725,18.5231,65.8725,18.5231C65.8725,18.5231,65.9479,18.5231,65.9479,18.5231C65.9479,18.5231,68.3657,9.97947,68.3657,9.97947C68.3657,9.97947,71.3873,9.97947,71.3873,9.97947C71.3873,9.97947,73.9558,18.3795,73.9558,18.3795C73.9558,18.3795,73.9558,18.3795,73.9558,18.3795ZM53.9368,20.3897C53.9368,20.0307,53.7103,19.6718,53.2572,19.3846C52.8041,19.0974,52.0485,18.8102,50.9152,18.5949C49.1778,18.2359,47.818,17.7334,46.9115,17.0872C46.0051,16.3693,45.5518,15.4359,45.5518,14.2154C45.5518,12.9231,46.1561,11.8462,47.2137,10.9128C48.3468,9.97947,49.8578,9.62049,51.7461,9.62049C53.7103,9.62049,55.372,10.0513,56.5053,10.9128C57.714,11.7744,58.2429,12.8513,58.1671,14.2872C58.1671,14.2872,58.1671,14.359,58.1671,14.359C58.1671,14.359,53.6349,14.359,53.6349,14.359C53.6349,13.7846,53.4837,13.3538,53.1813,13.0667C52.8794,12.7795,52.3504,12.6359,51.7461,12.6359C51.2176,12.6359,50.8399,12.7795,50.4621,13.0667C50.0843,13.3538,49.9331,13.641,49.9331,14.0718C49.9331,14.5026,50.1597,14.7897,50.5375,15.0769C50.9152,15.3641,51.7461,15.5795,52.8794,15.7949C54.6924,16.1538,56.1275,16.6564,56.9584,17.3026C57.8652,18.0205,58.3183,18.9539,58.3183,20.2462C58.3183,21.5385,57.714,22.6154,56.5053,23.4769C55.2967,24.3385,53.7103,24.7692,51.7461,24.7692C49.7066,24.7692,48.0447,24.2667,46.836,23.2615C45.6273,22.2564,45.0985,21.1795,45.1741,19.8872C45.1741,19.8872,45.1741,19.8154,45.1741,19.8154C45.1741,19.8154,49.48,19.8154,49.48,19.8154C49.48,20.5333,49.7066,21.0359,50.1597,21.2513C50.6133,21.4666,51.2176,21.7539,51.8973,21.7539C52.577,21.7539,53.0306,21.6103,53.3325,21.3949C53.7856,21.1795,53.9368,20.8205,53.9368,20.3897C53.9368,20.3897,53.9368,20.3897,53.9368,20.3897ZM33.3895,9.90771C33.3895,9.90771,33.5406,11.918,33.5406,11.918C34.0694,11.2,34.6738,10.6257,35.3536,10.2667C36.1091,9.83591,36.8644,9.62049,37.771,9.62049C39.2063,9.62049,40.4149,10.1231,41.2459,10.9846C42.0769,11.8462,42.5301,13.3538,42.5301,15.3641C42.5301,15.3641,42.5301,24.482,42.5301,24.482C42.5301,24.482,37.922,24.482,37.922,24.482C37.922,24.482,37.922,15.4359,37.922,15.4359C37.922,14.5744,37.771,14.0718,37.3933,13.7128C37.0155,13.3538,36.4867,13.2103,35.8069,13.2103C35.3536,13.2103,34.9759,13.2821,34.5982,13.4256C34.2205,13.5692,33.9183,13.7846,33.6917,14.0718C33.6917,14.0718,33.6917,24.5538,33.6917,24.5538C33.6917,24.5538,29.0081,24.5538,29.0081,24.5538C29.0081,24.5538,29.0081,9.97947,29.0081,9.97947C29.0081,9.97947,33.3895,9.97947,33.3895,9.97947C33.3895,9.97947,33.3895,9.90771,33.3895,9.90771C33.3895,9.90771,33.3895,9.90771,33.3895,9.90771ZM26.1375,7.1795C26.1375,7.1795,21.3784,7.1795,21.3784,7.1795C21.3784,7.1795,21.3784,3.51792,21.3784,3.51792C21.3784,3.51792,26.1375,3.51792,26.1375,3.51792C26.1375,3.51792,26.1375,7.1795,26.1375,7.1795C26.1375,7.1795,26.1375,7.1795,26.1375,7.1795ZM26.1375,24.5538C26.1375,24.5538,21.3784,24.5538,21.3784,24.5538C21.3784,24.5538,21.3784,9.97947,21.3784,9.97947C21.3784,9.97947,26.1375,9.97947,26.1375,9.97947C26.1375,9.97947,26.1375,24.5538,26.1375,24.5538C26.1375,24.5538,26.1375,24.5538,26.1375,24.5538ZM10.9536,24.5538C10.9536,24.5538,10.9536,13.0667,10.9536,13.0667C10.9536,13.0667,8.76288,13.0667,8.76288,13.0667C8.76288,13.0667,8.76288,9.90771,8.76288,9.90771C8.76288,9.90771,10.9536,9.90771,10.9536,9.90771C10.9536,9.90771,10.9536,8.4,10.9536,8.4C10.9536,6.74872,11.4824,5.45642,12.4644,4.5231C13.522,3.58978,15.1084,3.37436,16.2415,3.37436C16.6192,3.37436,19.2632,3.37436,19.2632,3.37436C19.2632,3.37436,19.2632,7.03589,19.2632,7.03589C19.2632,7.03589,17.8279,7.03589,17.5257,7.03589C16.9214,7.03589,16.4681,7.1795,16.166,7.46668C15.8638,7.75385,15.7127,8.18463,15.7127,8.75897C15.7127,8.75897,15.7127,9.83591,15.7127,9.83591C15.7127,9.83591,18.6589,9.83591,18.6589,9.83591C18.6589,9.83591,18.6589,12.9949,18.6589,12.9949C18.6589,12.9949,15.7127,12.9949,15.7127,12.9949C15.7127,12.9949,15.7127,24.4102,15.7127,24.4102C15.7127,24.4102,10.9536,24.4102,10.9536,24.4102C10.9536,24.4102,10.9536,24.5538,10.9536,24.5538C10.9536,24.5538,10.9536,24.5538,10.9536,24.5538ZM1.88855,4.73847C1.88855,0.358978,4.30588,0,8.38517,0C8.38517,0,8.38517,3.44617,8.38517,3.44617C6.4966,3.44617,5.74118,3.73334,5.74118,4.81027C5.74118,4.81027,5.74118,10.4821,5.74118,10.4821C5.74118,11.7744,5.81673,13.1385,4.68359,14C5.81673,14.8615,5.74118,16.1538,5.74118,17.5179C5.74118,17.5179,5.74118,23.1897,5.74118,23.1897C5.74118,24.3385,6.4966,24.5538,8.38517,24.5538C8.38517,24.5538,8.38517,28,8.38517,28C4.30588,28,1.88855,27.641,1.88855,23.2615C1.88855,23.2615,1.88855,17.5179,1.88855,17.5179C1.88855,16.5846,1.88855,15.5795,0,15.5795C0,15.5795,0,14.0718,0,14.0718C0,14.0718,0,12.5641,0,12.5641C1.88855,12.5641,1.88855,11.4872,1.88855,10.6257C1.88855,10.6257,1.88855,4.73847,1.88855,4.73847C1.88855,4.73847,1.88855,4.73847,1.88855,4.73847Z" fill="#063255" fill-opacity="1"/></g></svg>