<svg fill="none" height="27" viewBox="0 0 120 27" width="120" xmlns="http://www.w3.org/2000/svg"><path d="m116.508 3.39228v6.30002h2.378v3.0462h-2.378v5.6769c0 .5538.148.9692.446 1.2461.297.2769.743.4154 1.337.4154h1.709v3.6s-2.6 0-2.972 0c-1.189 0-2.675-.2077-3.715-1.1076-1.04-.9001-1.486-2.077-1.486-3.7385v-6.1616h-2.155v-3.04614h2.155v-6.23078zm-13.895 20.56152c-2.155 0-4.0124-.6922-5.2753-1.9384-1.3376-1.2462-1.932-2.9077-1.932-4.8462v-.4846c0-2.1462.5944-3.8769 1.7832-5.2615 1.1889-1.3154 2.8981-2.00772 5.1271-2.00772 2.006 0 3.641.55384 4.756 1.66152 1.188 1.1769 1.708 2.7 1.708 4.6385v2.2846h-8.544v.0692c.074.7616.445 1.2462.966 1.7308.519.4846 1.263.6923 2.08.6923.892 0 1.56-.0692 2.081-.2077.519-.1384 1.262-.3461 2.006-.6923 0 0 1.114 2.7 1.114 2.7-.669.4846-1.486.8308-2.526 1.1769-1.04.3462-2.229.4846-3.344.4846zm-.371-11.2153c-.669 0-1.189.2076-1.487.6922-.297.4847-.519 1.1077-.594 1.8001 0 0 .075.0692.075.0692h4.012v-.3462c0-.7615-.149-1.2461-.446-1.5923-.446-.4845-.892-.623-1.56-.623zm-15.3068 11.2153c-2.1548 0-4.0127-.6922-5.2756-1.9384-1.263-1.2462-1.932-2.9077-1.932-4.8462v-.4846c0-2.1462.5944-3.8769 1.7832-5.2615 1.1889-1.3154 2.898-2.00772 5.1269-2.00772 2.0066 0 3.6411.55384 4.7558 1.66152 1.1143 1.1077 1.7087 2.7 1.7087 4.6385v2.2846h-8.5447v.0692c.0741.7616.4457 1.2462.966 1.7308.5198.4846 1.263.6923 2.0802.6923.8919 0 1.5604-.0692 2.0807-.2077.5203-.1384 1.2629-.3461 2.0061-.6923 0 0 1.1147 2.7 1.1147 2.7-.669.4846-1.4863.8308-2.5264 1.1769-.966.3462-2.1548.4846-3.3436.4846zm-.2975-11.2153c-.6685 0-1.1888.2076-1.4857.6922-.2975.4847-.5204 1.1077-.5945 1.8001 0 0 .0741.0692.0741.0692h4.0127v-.3462c0-.7615-.1487-1.2461-.4462-1.5923-.4457-.4845-.8913-.623-1.5604-.623zm-13.8943 4.9846s1.6345-8.16923 1.6345-8.16923h4.235s-3.4178 14.05383-3.4178 14.05383h-3.938s-2.4518-7.4769-2.4518-7.4769h-.0746s-2.4517 7.4769-2.4517 7.4769h-3.9381s-3.4924-13.98464-3.4924-13.98464h4.3096s1.6346 8.23844 1.6346 8.23844h.0741s2.3781-8.23844 2.3781-8.23844h2.9721s2.5264 8.10004 2.5264 8.10004zm-19.6908 1.9384c0-.3461-.2228-.6923-.6685-.9692s-1.1888-.5538-2.3036-.7615c-1.7089-.3462-3.0464-.8308-3.938-1.4539-.8916-.6923-1.3375-1.5923-1.3375-2.7692 0-1.2461.5945-2.2846 1.6347-3.1846 1.1146-.90004 2.6008-1.2462 4.4581-1.2462 1.932 0 3.5665.4154 4.6812 1.2462 1.1888.8307 1.7091 1.8692 1.6345 3.2538v.0692h-4.4578c0-.5538-.1488-.9692-.4462-1.2461-.297-.2769-.8173-.4154-1.4117-.4154-.5198 0-.8914.1385-1.2629.4154-.3716.2769-.5203.5539-.5203.9692 0 .4154.2228.6923.5944.9692.3715.277 1.1888.4847 2.3035.6924 1.7833.3461 3.1949.8308 4.0122 1.4538.8919.6923 1.3375 1.5923 1.3375 2.8385 0 1.2461-.5944 2.2846-1.7832 3.1153-1.1888.8308-2.7492 1.2462-4.6812 1.2462-2.0061 0-3.6407-.4846-4.8296-1.4538-1.1888-.9693-1.709-2.0077-1.6347-3.2539v-.0692h4.2354c0 .6923.2228 1.1769.6685 1.3846.4462.2077 1.0406.4846 1.7091.4846.6686 0 1.1148-.1384 1.4117-.3461.4457-.2077.5944-.5539.5944-.9693zm-20.2104-10.10763s.1486 1.93843.1486 1.93843c.5201-.6923 1.1145-1.2461 1.7833-1.59228.743-.41539 1.486-.62312 2.3777-.62312 1.4117 0 2.6006.48464 3.4179 1.3154.8174.8308 1.2632 2.2846 1.2632 4.2231v8.7923h-4.5325v-8.7231c0-.8307-.1486-1.3154-.5201-1.6615-.3716-.3462-.8917-.4846-1.5604-.4846-.4458 0-.8174.0692-1.1889.2076-.3715.1385-.6687.3462-.8916.6231v10.1077h-4.6069v-14.05384h4.3097zm-7.1332-2.63078h-4.6811v-3.53081h4.6811zm0 16.75381h-4.6811v-14.05384h4.6811zm-14.935 0v-11.0769h-2.15477v-3.04613h2.15477v-1.45387c0-1.5923.5201-2.83845 1.4861-3.73844 1.0402-.89999 2.6006-1.10771 3.7152-1.10771h2.9721v3.53076s-1.4118 0-1.709 0c-.5944 0-1.0402.13848-1.3374.4154s-.4459.69231-.4459 1.24614v1.03848h2.8979v3.04607h-2.8979v11.0077h-4.6811zm-8.91641-19.10766c0-4.223083 2.3777-4.56924 6.39012-4.56924v3.32309c-1.85761 0-2.60065.27692-2.60065 1.31539v5.46922c0 1.2461.07431 2.5615-1.04025 3.3923 1.11456.8308 1.04025 2.0769 1.04025 3.3923v5.4692c0 1.1077.74304 1.3154 2.60065 1.3154v3.3231c-4.01242 0-6.39012-.3462-6.39012-4.5692v-5.5385c0-.9 0-1.8692-1.85759-1.8692v-1.4539-1.4538c1.85759 0 1.85759-1.0385 1.85759-1.8692z" fill="#fff"/></svg>