<svg xmlns="http://www.w3.org/2000/svg" xmlns:xlink="http://www.w3.org/1999/xlink" fill="none" version="1.1" width="120" height="27" viewBox="0 0 120 27"><g><path d="M116.508,3.39228C116.508,3.39228,116.508,9.6923,116.508,9.6923C116.508,9.6923,118.886,9.6923,118.886,9.6923C118.886,9.6923,118.886,12.7385,118.886,12.7385C118.886,12.7385,116.508,12.7385,116.508,12.7385C116.508,12.7385,116.508,18.4154,116.508,18.4154C116.508,18.9692,116.656,19.3846,116.954,19.6615C117.251,19.9384,117.697,20.0769,118.291,20.0769C118.588,20.0769,120,20.0769,120,20.0769C120,20.0769,120,23.6769,120,23.6769C120,23.6769,117.4,23.6769,117.028,23.6769C115.839,23.6769,114.353,23.4692,113.313,22.5693C112.273,21.6692,111.827,20.4923,111.827,18.8308C111.827,18.8308,111.827,12.6692,111.827,12.6692C111.827,12.6692,109.672,12.6692,109.672,12.6692C109.672,12.6692,109.672,9.62306,109.672,9.62306C109.672,9.62306,111.827,9.62306,111.827,9.62306C111.827,9.62306,111.827,3.39228,111.827,3.39228C111.827,3.39228,116.508,3.39228,116.508,3.39228C116.508,3.39228,116.508,3.39228,116.508,3.39228ZM102.613,23.9538C100.458,23.9538,98.6006,23.2616,97.3377,22.0154C96.0001,20.7692,95.4057,19.1077,95.4057,17.1692C95.4057,17.1692,95.4057,16.6846,95.4057,16.6846C95.4057,14.5384,96.0001,12.8077,97.1889,11.4231C98.3778,10.1077,100.087,9.41538,102.316,9.41538C104.322,9.41538,105.957,9.96922,107.072,11.0769C108.26,12.2538,108.78,13.7769,108.78,15.7154C108.78,15.7154,108.78,18,108.78,18C108.78,18,100.236,18,100.236,18C100.236,18,100.236,18.0692,100.236,18.0692C100.31,18.8308,100.681,19.3154,101.202,19.8C101.721,20.2846,102.465,20.4923,103.282,20.4923C104.174,20.4923,104.842,20.4231,105.363,20.2846C105.882,20.1462,106.625,19.9385,107.369,19.5923C107.369,19.5923,108.483,22.2923,108.483,22.2923C107.814,22.7769,106.997,23.1231,105.957,23.4692C104.917,23.8154,103.728,23.9538,102.613,23.9538C102.613,23.9538,102.613,23.9538,102.613,23.9538ZM102.242,12.7385C101.573,12.7385,101.053,12.9461,100.755,13.4307C100.458,13.9154,100.236,14.5384,100.161,15.2308C100.161,15.2308,100.236,15.3,100.236,15.3C100.236,15.3,104.248,15.3,104.248,15.3C104.248,15.3,104.248,14.9538,104.248,14.9538C104.248,14.1923,104.099,13.7077,103.802,13.3615C103.356,12.877,102.91,12.7385,102.242,12.7385C102.242,12.7385,102.242,12.7385,102.242,12.7385ZM86.9352,23.9538C84.7804,23.9538,82.9225,23.2616,81.6596,22.0154C80.3966,20.7692,79.7276,19.1077,79.7276,17.1692C79.7276,17.1692,79.7276,16.6846,79.7276,16.6846C79.7276,14.5384,80.322,12.8077,81.5108,11.4231C82.6997,10.1077,84.4088,9.41538,86.6377,9.41538C88.6443,9.41538,90.2788,9.96922,91.3935,11.0769C92.5078,12.1846,93.1022,13.7769,93.1022,15.7154C93.1022,15.7154,93.1022,18,93.1022,18C93.1022,18,84.5575,18,84.5575,18C84.5575,18,84.5575,18.0692,84.5575,18.0692C84.6316,18.8308,85.0032,19.3154,85.5235,19.8C86.0433,20.2846,86.7865,20.4923,87.6037,20.4923C88.4956,20.4923,89.1641,20.4231,89.6844,20.2846C90.2047,20.1462,90.9473,19.9385,91.6905,19.5923C91.6905,19.5923,92.8052,22.2923,92.8052,22.2923C92.1362,22.7769,91.3189,23.1231,90.2788,23.4692C89.3128,23.8154,88.124,23.9538,86.9352,23.9538C86.9352,23.9538,86.9352,23.9538,86.9352,23.9538ZM86.6377,12.7385C85.9692,12.7385,85.4489,12.9461,85.152,13.4307C84.8545,13.9154,84.6316,14.5384,84.5575,15.2308C84.5575,15.2308,84.6316,15.3,84.6316,15.3C84.6316,15.3,88.6443,15.3,88.6443,15.3C88.6443,15.3,88.6443,14.9538,88.6443,14.9538C88.6443,14.1923,88.4956,13.7077,88.1981,13.3615C87.7524,12.877,87.3068,12.7385,86.6377,12.7385C86.6377,12.7385,86.6377,12.7385,86.6377,12.7385ZM72.7434,17.7231C72.7434,17.7231,74.3779,9.55387,74.3779,9.55387C74.3779,9.55387,78.6129,9.55387,78.6129,9.55387C78.6129,9.55387,75.1951,23.6077,75.1951,23.6077C75.1951,23.6077,71.2571,23.6077,71.2571,23.6077C71.2571,23.6077,68.8053,16.1308,68.8053,16.1308C68.8053,16.1308,68.7307,16.1308,68.7307,16.1308C68.7307,16.1308,66.279,23.6077,66.279,23.6077C66.279,23.6077,62.3409,23.6077,62.3409,23.6077C62.3409,23.6077,58.8485,9.62306,58.8485,9.62306C58.8485,9.62306,63.1581,9.62306,63.1581,9.62306C63.1581,9.62306,64.7927,17.8615,64.7927,17.8615C64.7927,17.8615,64.8668,17.8615,64.8668,17.8615C64.8668,17.8615,67.2449,9.62306,67.2449,9.62306C67.2449,9.62306,70.217,9.62306,70.217,9.62306C70.217,9.62306,72.7434,17.7231,72.7434,17.7231C72.7434,17.7231,72.7434,17.7231,72.7434,17.7231ZM53.0526,19.6615C53.0526,19.3154,52.8298,18.9692,52.3841,18.6923C51.9384,18.4154,51.1953,18.1385,50.0805,17.9308C48.3716,17.5846,47.0341,17.1,46.1425,16.4769C45.2509,15.7846,44.805,14.8846,44.805,13.7077C44.805,12.4616,45.3995,11.4231,46.4397,10.5231C47.5543,9.62306,49.0405,9.2769,50.8978,9.2769C52.8298,9.2769,54.4643,9.6923,55.579,10.5231C56.7678,11.3538,57.2881,12.3923,57.2135,13.7769C57.2135,13.7769,57.2135,13.8461,57.2135,13.8461C57.2135,13.8461,52.7557,13.8461,52.7557,13.8461C52.7557,13.2923,52.6069,12.8769,52.3095,12.6C52.0125,12.3231,51.4922,12.1846,50.8978,12.1846C50.378,12.1846,50.0064,12.3231,49.6349,12.6C49.2633,12.8769,49.1146,13.1539,49.1146,13.5692C49.1146,13.9846,49.3374,14.2615,49.709,14.5384C50.0805,14.8154,50.8978,15.0231,52.0125,15.2308C53.7958,15.5769,55.2074,16.0616,56.0247,16.6846C56.9166,17.3769,57.3622,18.2769,57.3622,19.5231C57.3622,20.7692,56.7678,21.8077,55.579,22.6384C54.3902,23.4692,52.8298,23.8846,50.8978,23.8846C48.8917,23.8846,47.2571,23.4,46.0682,22.4308C44.8794,21.4615,44.3592,20.4231,44.4335,19.1769C44.4335,19.1769,44.4335,19.1077,44.4335,19.1077C44.4335,19.1077,48.6689,19.1077,48.6689,19.1077C48.6689,19.8,48.8917,20.2846,49.3374,20.4923C49.7836,20.7,50.378,20.9769,51.0465,20.9769C51.7151,20.9769,52.1613,20.8385,52.4582,20.6308C52.9039,20.4231,53.0526,20.0769,53.0526,19.6615C53.0526,19.6615,53.0526,19.6615,53.0526,19.6615ZM32.8422,9.55387C32.8422,9.55387,32.9908,11.4923,32.9908,11.4923C33.5109,10.8,34.1053,10.2462,34.7741,9.90002C35.5171,9.48463,36.2601,9.2769,37.1518,9.2769C38.5635,9.2769,39.7524,9.76154,40.5697,10.5923C41.3871,11.4231,41.8329,12.8769,41.8329,14.8154C41.8329,14.8154,41.8329,23.6077,41.8329,23.6077C41.8329,23.6077,37.3004,23.6077,37.3004,23.6077C37.3004,23.6077,37.3004,14.8846,37.3004,14.8846C37.3004,14.0539,37.1518,13.5692,36.7803,13.2231C36.4087,12.8769,35.8886,12.7385,35.2199,12.7385C34.7741,12.7385,34.4025,12.8077,34.031,12.9461C33.6595,13.0846,33.3623,13.2923,33.1394,13.5692C33.1394,13.5692,33.1394,23.6769,33.1394,23.6769C33.1394,23.6769,28.5325,23.6769,28.5325,23.6769C28.5325,23.6769,28.5325,9.62306,28.5325,9.62306C28.5325,9.62306,32.8422,9.62306,32.8422,9.62306C32.8422,9.62306,32.8422,9.55387,32.8422,9.55387C32.8422,9.55387,32.8422,9.55387,32.8422,9.55387ZM25.709,6.92309C25.709,6.92309,21.0279,6.92309,21.0279,6.92309C21.0279,6.92309,21.0279,3.39228,21.0279,3.39228C21.0279,3.39228,25.709,3.39228,25.709,3.39228C25.709,3.39228,25.709,6.92309,25.709,6.92309C25.709,6.92309,25.709,6.92309,25.709,6.92309ZM25.709,23.6769C25.709,23.6769,21.0279,23.6769,21.0279,23.6769C21.0279,23.6769,21.0279,9.62306,21.0279,9.62306C21.0279,9.62306,25.709,9.62306,25.709,9.62306C25.709,9.62306,25.709,23.6769,25.709,23.6769C25.709,23.6769,25.709,23.6769,25.709,23.6769ZM10.774,23.6769C10.774,23.6769,10.774,12.6,10.774,12.6C10.774,12.6,8.61923,12.6,8.61923,12.6C8.61923,12.6,8.61923,9.55387,8.61923,9.55387C8.61923,9.55387,10.774,9.55387,10.774,9.55387C10.774,9.55387,10.774,8.1,10.774,8.1C10.774,6.5077,11.2941,5.26155,12.2601,4.36156C13.3003,3.46157,14.8607,3.25385,15.9753,3.25385C16.3468,3.25385,18.9474,3.25385,18.9474,3.25385C18.9474,3.25385,18.9474,6.78461,18.9474,6.78461C18.9474,6.78461,17.5356,6.78461,17.2384,6.78461C16.644,6.78461,16.1982,6.92309,15.901,7.20001C15.6038,7.47693,15.4551,7.89232,15.4551,8.44615C15.4551,8.44615,15.4551,9.48463,15.4551,9.48463C15.4551,9.48463,18.353,9.48463,18.353,9.48463C18.353,9.48463,18.353,12.5307,18.353,12.5307C18.353,12.5307,15.4551,12.5307,15.4551,12.5307C15.4551,12.5307,15.4551,23.5384,15.4551,23.5384C15.4551,23.5384,10.774,23.5384,10.774,23.5384C10.774,23.5384,10.774,23.6769,10.774,23.6769C10.774,23.6769,10.774,23.6769,10.774,23.6769ZM1.85759,4.56924C1.85759,0.346157,4.23529,0,8.24771,0C8.24771,0,8.24771,3.32309,8.24771,3.32309C6.3901,3.32309,5.64706,3.60001,5.64706,4.63848C5.64706,4.63848,5.64706,10.1077,5.64706,10.1077C5.64706,11.3538,5.72137,12.6692,4.60681,13.5C5.72137,14.3308,5.64706,15.5769,5.64706,16.8923C5.64706,16.8923,5.64706,22.3615,5.64706,22.3615C5.64706,23.4692,6.3901,23.6769,8.24771,23.6769C8.24771,23.6769,8.24771,27,8.24771,27C4.23529,27,1.85759,26.6538,1.85759,22.4308C1.85759,22.4308,1.85759,16.8923,1.85759,16.8923C1.85759,15.9923,1.85759,15.0231,0,15.0231C0,15.0231,0,13.5692,0,13.5692C0,13.5692,0,12.1154,0,12.1154C1.85759,12.1154,1.85759,11.0769,1.85759,10.2462C1.85759,10.2462,1.85759,4.56924,1.85759,4.56924C1.85759,4.56924,1.85759,4.56924,1.85759,4.56924Z" fill="#FFFFFF" fill-opacity="1"/></g></svg>