<svg xmlns="http://www.w3.org/2000/svg" xmlns:xlink="http://www.w3.org/1999/xlink" fill="none" version="1.1" width="116" height="113.0078125" viewBox="0 0 116 113.0078125"><g><g><path d="M50.50590825805664,101.9518504375C50.50590825805664,101.9518504375,48.47349825805664,113.00777343749999,48.47349825805664,113.00777343749999C48.47349825805664,113.00777343749999,44.35786825805664,112.2607734375,44.35786825805664,112.2607734375C43.54489825805664,112.11137343749999,42.93517825805664,111.8623734375,42.42707825805664,111.51377343749999C41.96978125805664,111.1651734375,41.61410825805664,110.7667234375,41.461678258056644,110.2687034375C41.25843665805664,109.7706934375,41.25843815805664,109.2726834375,41.36005875805664,108.7248634375C41.46167925805664,108.2766534375,41.61411125805664,107.8782334375,41.817352258056644,107.6292334375C42.02059325805664,107.3802234375,42.32545825805664,107.1312134375,42.63031825805664,106.9818134375C42.93517825805664,106.8324034375,43.29084825805664,106.7826034375,43.64651825805664,106.7328034375C43.64651825805664,106.7328034375,43.64651825805664,106.6332034375,43.64651825805664,106.6332034375C43.29084825805664,106.5335934375,42.93517825805664,106.3841934375,42.63031825805664,106.0853834375C42.32545825805664,105.7865734375,42.071402258056644,105.4379634375,41.918971258056644,104.9897434375C41.766540258056644,104.5415334375,41.71573125805664,104.0435134375,41.817352258056644,103.4957034375C41.91897325805664,102.9478834375,42.17302225805664,102.4498634375,42.47788825805664,102.0514514375C42.83355825805664,101.6530394375,43.29084825805664,101.3542314375,43.90057825805664,101.2048264375C44.51029825805664,101.0554224375,45.27244825805664,101.0554224375,46.13622825805664,101.2048264375C46.13622825805664,101.2048264375,50.50590825805664,101.9518504375,50.50590825805664,101.9518504375C50.50590825805664,101.9518504375,50.50590825805664,101.9518504375,50.50590825805664,101.9518504375ZM47.66053825805664,107.9280334375C47.66053825805664,107.9280334375,45.37407825805664,107.52962343749999,45.37407825805664,107.52962343749999C44.967588258056644,107.4798234375,44.61191825805664,107.4798234375,44.30705825805664,107.5794234375C44.00218825805664,107.6790334375,43.69732825805664,107.8284334375,43.443278258056644,108.0774434375C43.18922825805664,108.32645343749999,43.08760825805664,108.5754534375,42.98598825805664,108.9738734375C42.88436825805664,109.42208343749999,42.98598825805664,109.8204934375,43.29084825805664,110.2189034375C43.59570825805664,110.6173234375,44.05300825805664,110.8165234375,44.713538258056644,110.9659334375C44.713538258056644,110.9659334375,47.05080825805664,111.3643734375,47.05080825805664,111.3643734375C47.05080825805664,111.3643734375,47.66053825805664,107.9280334375,47.66053825805664,107.9280334375C47.66053825805664,107.9280334375,47.66053825805664,107.9280334375,47.66053825805664,107.9280334375ZM48.52430825805664,103.0474834375C48.52430825805664,103.0474834375,46.08541825805664,102.5992734375,46.08541825805664,102.5992734375C45.27244825805664,102.4498634375,44.66272825805664,102.4996734375,44.256248258056644,102.7486734375C43.84975825805664,102.9976834375,43.59570825805664,103.3462934375,43.49408825805664,103.7945034375C43.443278258056644,104.1431134375,43.443278258056644,104.4917234375,43.59570825805664,104.7905334375C43.69733825805664,105.0893434375,43.95137825805664,105.3881634375,44.256248258056644,105.63716343749999C44.56110825805664,105.8861734375,44.91677825805664,106.0355734375,45.37407825805664,106.0853834375C45.37407825805664,106.0853834375,47.91458825805664,106.5335934375,47.91458825805664,106.5335934375C47.91458825805664,106.5335934375,48.52430825805664,103.0474834375,48.52430825805664,103.0474834375C48.52430825805664,103.0474834375,48.52430825805664,103.0474834375,48.52430825805664,103.0474834375Z" fill="#F58A07" fill-opacity="1"/></g><g><path d="M36.73598075500488,98.16690433984375C37.49814075500488,98.46571533984375,38.107860755004886,98.91392833984375,38.514350755004884,99.51154833984376C38.920830755004886,100.05936833984374,39.174880755004885,100.70678833984375,39.225690755004884,101.45380833984375C39.27650075500488,102.20083833984376,39.12407075500488,102.94786833984375,38.76840075500488,103.74469833984375C38.41273075500488,104.54151833984375,37.95543075500488,105.18894833984375,37.39651075500488,105.63715833984375C36.837600755004885,106.13517833984375,36.17706075500488,106.43397833984375,35.51653075500488,106.53358833984375C34.80518075500488,106.63318833984376,34.09383075500488,106.53358833984375,33.38249075500488,106.23477833984376C32.925190755004884,106.03557833984375,32.51871075500488,105.78656833984375,32.163040755004886,105.48775833984375C31.807364755004883,105.18894833984375,31.55331275500488,104.79052833984375,31.350071755004883,104.34231833984376C31.146829455004884,103.89409833984375,31.045208555004884,103.39607833984375,31.096018955004883,102.79845833984375C31.096018955004883,102.20083833984376,31.299260755004884,101.60321833984375,31.60412375500488,100.90599833984375C31.60412375500488,100.90599833984375,31.858175755004883,100.35817833984375,31.858175755004883,100.35817833984375C31.858175755004883,100.35817833984375,38.158670755004884,102.94786833984375,38.158670755004884,102.94786833984375C38.158670755004884,102.94786833984375,37.650570755004885,104.09330833984374,37.650570755004885,104.09330833984374C37.650570755004885,104.09330833984374,32.874380755004886,102.10123833984375,32.874380755004886,102.10123833984375C32.72195075500488,102.49964833984374,32.620330755004886,102.89806833984375,32.671140755004885,103.24667833984375C32.72195075500488,103.64508833984375,32.82357075500488,103.94389833984376,33.026820755004884,104.24270833984374C33.230060755004885,104.54151833984375,33.53492075500488,104.79052833984375,33.94141075500488,104.93992833984375C34.39870075500488,105.13913833984375,34.80518075500488,105.18893833984374,35.21167075500488,105.08933833984375C35.61815075500488,105.03953833984374,35.97382075500488,104.84032833984375,36.27869075500488,104.59131833984375C36.58355075500488,104.34231833984376,36.837600755004885,103.99370833984375,36.99003075500488,103.64508833984375C36.99003075500488,103.64508833984375,37.39651075500488,102.74865833984376,37.39651075500488,102.74865833984376C37.59976075500488,102.25063833984375,37.701380755004884,101.75261833984375,37.701380755004884,101.30440833984375C37.650570755004885,100.85618833984375,37.54895075500488,100.45778833984375,37.294890755004886,100.15896833984375C37.04084075500488,99.86015833984375,36.68517075500488,99.56134833984375,36.22788075500488,99.36213833984375C35.92301075500488,99.26253833984374,35.66896075500488,99.16293833984375,35.364100755004884,99.16293833984375C35.11004075500488,99.16293833984375,34.80518075500488,99.16293833984375,34.60194075500488,99.26253833984374C34.39870075500488,99.36214833984376,34.14465075500488,99.51154833984376,33.94141075500488,99.71074833984375C33.94141075500488,99.71074833984375,32.56952075500488,98.86412833984375,32.56952075500488,98.86412833984375C32.874380755004886,98.51551333984375,33.230060755004885,98.21670533984376,33.687350755004886,98.01749833984375C34.14465075500488,97.81829123984375,34.60194075500488,97.71868783984375,35.11004075500488,97.76848953984376C35.61815075500488,97.81829123984375,36.177070755004884,97.91789633984375,36.73598075500488,98.16690433984375C36.73598075500488,98.16690433984375,36.73598075500488,98.16690433984375,36.73598075500488,98.16690433984375Z" fill="#F58A07" fill-opacity="1"/></g><g><path d="M22.254813337036133,97.36987693603515C22.254813337036133,97.36987693603515,23.67750233703613,98.01730693603515,23.67750233703613,98.01730693603515C23.626692337036133,98.21650693603516,23.575882337036134,98.41571693603515,23.626692337036133,98.61491693603516C23.626692337036133,98.81412693603515,23.728312337036133,99.06313693603515,23.829932337036134,99.26233693603515C23.982362337036133,99.46154693603516,24.185602337036133,99.71054693603516,24.439662337036133,99.85995693603516C24.846142337036135,100.10896693603516,25.20181233703613,100.25836693603516,25.608302337036132,100.25836693603516C25.963972337036132,100.25836693603516,26.268832337036134,100.10896693603516,26.47207233703613,99.85995693603516C26.624502337036134,99.61094693603516,26.675312337036132,99.36193693603515,26.624502337036134,99.11293693603515C26.57369233703613,98.86392693603516,26.370452337036134,98.56511693603515,26.01478233703613,98.21650693603516C26.01478233703613,98.21650693603516,25.049382337036132,97.22047693603515,25.049382337036132,97.22047693603515C24.49047233703613,96.62285693603516,24.185612337036133,96.07503693603516,24.083982337036133,95.57702693603515C23.982362337036133,95.07900693603516,24.083982337036133,94.53119693603516,24.439662337036133,94.03318393603516C24.744522337036134,93.63477193603515,25.100192337036134,93.33596493603515,25.608302337036132,93.18655993603515C26.065592337036133,93.03715569603516,26.57369233703613,92.98735113603516,27.183422337036134,93.13675563603516C27.74233233703613,93.23635893603516,28.301242337036133,93.48536593603515,28.91097233703613,93.88377793603516C29.72394233703613,94.43159693603516,30.232042337036134,95.02921693603516,30.486092337036133,95.67663693603515C30.740142337036133,96.32405693603516,30.740142337036133,97.02126693603516,30.384472337036133,97.71848693603516C30.384472337036133,97.71848693603516,28.91097233703613,97.02127693603515,28.91097233703613,97.02127693603515C29.063402337036134,96.62285693603516,29.063402337036134,96.27425693603516,28.961782337036134,95.92564693603515C28.80935233703613,95.57702693603515,28.55530233703613,95.27821693603515,28.148812337036134,94.97940693603516C27.691522337036133,94.68059693603516,27.28504233703613,94.53119693603516,26.878552337036133,94.53119693603516C26.47207233703613,94.53119693603516,26.167212337036133,94.68060693603516,26.01478233703613,94.92961693603516C25.862352337036132,95.12881693603515,25.811542337036133,95.37782693603516,25.862352337036132,95.62682693603516C25.913162337036134,95.87583693603516,26.116402337036135,96.17464693603516,26.370452337036134,96.47345693603516C26.370452337036134,96.47345693603516,27.38666233703613,97.51928693603516,27.38666233703613,97.51928693603516C27.945572337036133,98.11690693603515,28.250432337036134,98.66471693603516,28.352052337036135,99.21253693603515C28.45367233703613,99.76034693603516,28.301242337036133,100.25836693603516,27.945572337036133,100.75638693603516C27.640712337036135,101.15479693603515,27.28504233703613,101.45360693603516,26.827742337036135,101.60300693603516C26.370452337036134,101.75241693603516,25.862352337036132,101.75241693603516,25.354242337036133,101.65281693603515C24.846142337036135,101.55320693603515,24.287232337036134,101.30419693603515,23.77912233703613,100.95558693603516C23.016968337036133,100.45757693603515,22.50886633703613,99.85995693603516,22.305624337036132,99.26233693603515C22.000762337036132,98.66472693603515,22.000761237036134,98.01729693603515,22.254813337036133,97.36987693603515C22.254813337036133,97.36987693603515,22.254813337036133,97.36987693603515,22.254813337036133,97.36987693603515Z" fill="#F58A07" fill-opacity="1"/></g><g><path d="M16.157658580017088,97.5189284375C16.157658580017088,97.5189284375,14.93820858001709,96.3734884375,14.93820858001709,96.3734884375C14.93820858001709,96.3734884375,20.57814858001709,90.6462984375,20.57814858001709,90.6462984375C20.78138858001709,90.3972884375,20.93382858001709,90.1980884375,20.98463858001709,90.0486784375C21.03544858001709,89.8494784375,21.03544858001709,89.7000684375,20.93382858001709,89.5506684375C20.88301858001709,89.4012584375,20.78138858001709,89.2518584375,20.62895858001709,89.1522484375C20.52733858001709,89.0526484375,20.42571858001709,89.0028484375,20.37490858001709,88.9530484375C20.32409858001709,88.9032484375,20.22247858001709,88.8534484375,20.17166858001709,88.8036384375C20.17166858001709,88.8036384375,20.93382858001709,87.6083984375,20.93382858001709,87.6083984375C21.03544858001709,87.6582000375,21.13706858001709,87.7080062375,21.28949858001709,87.8076094375C21.44192858001709,87.9072124375,21.64516858001709,88.0566194375,21.79759858001709,88.2060244375C22.10245858001709,88.5048344375,22.356508580017092,88.8534484375,22.50893858001709,89.2020584375C22.66137858001709,89.5506684375,22.71218858001709,89.9490784375,22.66137858001709,90.3474884375C22.61055858001709,90.7458984375,22.356508580017092,91.1443184375,22.00083858001709,91.4929284375C22.00083858001709,91.4929284375,16.157658580017088,97.5189284375,16.157658580017088,97.5189284375C16.157658580017088,97.5189284375,16.157658580017088,97.5189284375,16.157658580017088,97.5189284375ZM15.09063958001709,93.7339984375C15.09063958001709,93.7339984375,16.00522858001709,92.7877684375,16.00522858001709,92.7877684375C16.00522858001709,92.7877684375,19.35870858001709,95.9750784375,19.35870858001709,95.9750784375C19.35870858001709,95.9750784375,18.44411858001709,96.9213084375,18.44411858001709,96.9213084375C18.44411858001709,96.9213084375,15.09063958001709,93.7339984375,15.09063958001709,93.7339984375C15.09063958001709,93.7339984375,15.09063958001709,93.7339984375,15.09063958001709,93.7339984375Z" fill="#F58A07" fill-opacity="1"/></g><g><path d="M15.344794530334473,79.83936447998047C15.598844530334473,80.28758447998047,15.751284530334473,80.78559447998047,15.802094530334474,81.23381447998047C15.852904530334472,81.73182447998047,15.751284530334473,82.13023447998047,15.548034530334473,82.52865447998047C15.344794530334473,82.92706447998047,14.989124530334472,83.27567447998047,14.481024530334473,83.57448447998047C14.074534530334471,83.82349447998047,13.668054530334473,83.92309447998046,13.312384530334473,83.92309447998046C12.956714530334473,83.92309447998046,12.601034530334474,83.82348447998046,12.296174530334472,83.62428447998047C11.991314530334472,83.42507447998047,11.686454530334473,83.22587447998046,11.432394530334474,82.92706447998047C11.178344530334472,82.62825447998047,10.873484530334473,82.32944447998047,10.670244530334472,82.03063447998046C10.365384530334472,81.63222447998047,10.111334530334473,81.28361447998047,9.908084530334472,81.03460447998047C9.704844530334473,80.78559447998047,9.552414530334472,80.63618447998047,9.399984530334473,80.53658447998046C9.247554530334472,80.43698447998047,9.095124530334473,80.48678447998047,8.891884530334472,80.58639447998047C8.891884530334472,80.58639447998047,8.841074530334472,80.58639447998047,8.841074530334472,80.58639447998047C8.434584530334472,80.83539447998047,8.180534530334473,81.13421447998047,8.078914530334472,81.48282447998047C7.977294530334473,81.83143447998047,8.078914530334472,82.27964447998048,8.332964530334472,82.72786447998047C8.637824530334473,83.22587447998046,8.942694530334473,83.52468447998046,9.298364530334473,83.67408447998046C9.654034530334473,83.82349447998047,10.009704530334472,83.87329447998047,10.365384530334472,83.82349447998047C10.365384530334472,83.82349447998047,10.822674530334472,85.31754447998047,10.822674530334472,85.31754447998047C10.263764530334473,85.41714447998046,9.755654530334473,85.36734447998047,9.298364530334473,85.21793447998047C8.841074530334472,85.06853447998047,8.434584530334472,84.81952447998047,8.078914530334472,84.52071447998047C7.723244530334473,84.17210447998048,7.4183815303344725,83.82348447998046,7.164329530334473,83.37527447998048C7.011898530334473,83.07646447998047,6.859466530334473,82.77765447998047,6.707035530334473,82.37924447998047C6.6054150303344725,82.03063447998046,6.554604530334473,81.63222447998047,6.554604530334473,81.23381447998047C6.554604530334473,80.83540447998047,6.707035530334473,80.43698447998047,6.910277530334473,80.08837447998047C7.113518530334472,79.73976447998047,7.520001530334473,79.39115447998047,8.078914530334472,79.04253447998047C8.078914530334472,79.04253447998047,13.007524530334472,76.25365447998047,13.007524530334472,76.25365447998047C13.007524530334472,76.25365447998047,13.820484530334472,77.64809447998047,13.820484530334472,77.64809447998047C13.820484530334472,77.64809447998047,12.804274530334473,78.24571447998046,12.804274530334473,78.24571447998046C12.804274530334473,78.24571447998046,12.855084530334473,78.29551447998047,12.855084530334473,78.29551447998047C13.109144530334472,78.29551447998047,13.363194530334471,78.29551447998047,13.668054530334473,78.39511447998046C13.972914530334473,78.49472447998046,14.226964530334474,78.64412447998046,14.531834530334471,78.84333447998047C14.836694530334473,79.14214447998047,15.090744530334472,79.44095447998046,15.344794530334473,79.83936447998047C15.344794530334473,79.83936447998047,15.344794530334473,79.83936447998047,15.344794530334473,79.83936447998047ZM13.972914530334473,80.18797447998047C13.718864530334471,79.78956447998047,13.464814530334472,79.49075447998047,13.159954530334472,79.29154447998047C12.855084530334473,79.09234447998047,12.499414530334473,78.99274447998047,12.143744530334473,78.99274447998047C11.788074530334473,78.99274447998047,11.483214530334472,79.09234447998047,11.178344530334472,79.24175447998047C11.178344530334472,79.24175447998047,10.212954530334473,79.78956447998047,10.212954530334473,79.78956447998047C10.314574530334472,79.78956447998047,10.416194530334472,79.88917447998047,10.517814530334473,79.98877447998046C10.619434530334473,80.08837447998047,10.771864530334472,80.23777447998047,10.924294530334473,80.43698447998047C11.076724530334474,80.58639447998047,11.178344530334472,80.78559447998047,11.330774530334473,80.93500447998046C11.432394530334474,81.08440447998046,11.584834530334472,81.23381447998047,11.635644530334472,81.33341447998046C11.838884530334472,81.58242447998047,12.042124530334473,81.83143447998047,12.245364530334474,81.98083447998047C12.448604530334473,82.18004447998047,12.702654530334472,82.27964447998048,12.905894530334471,82.32944447998047C13.159954530334472,82.37924447998047,13.414004530334473,82.32944447998047,13.668054530334473,82.18004447998047C14.023724530334473,81.98083447998047,14.226964530334474,81.68202447998047,14.226964530334474,81.33341447998046C14.328594530334474,80.98480447998047,14.226964530334474,80.58639447998047,13.972914530334473,80.18797447998047C13.972914530334473,80.18797447998047,13.972914530334473,80.18797447998047,13.972914530334473,80.18797447998047Z" fill="#F58A07" fill-opacity="1"/></g><g><path d="M14.07482680015564,69.53056228027344C14.27802680015564,70.17798228027344,14.37962680015564,70.72580228027344,14.328826800155639,71.27362228027344C14.328826800155639,71.77163228027344,14.22722680015564,72.21985228027344,14.02402680015564,72.61826228027344C13.82072680015564,73.01667228027344,13.61752680015564,73.31548228027344,13.31262680015564,73.56449228027344C13.31262680015564,73.56449228027344,12.29642680015564,72.41905228027343,12.29642680015564,72.41905228027343C12.39802680015564,72.26964228027344,12.55052680015564,72.12024228027343,12.65212680015564,71.87124228027344C12.75372680015564,71.67203228027344,12.85532680015564,71.37322228027344,12.90612680015564,71.07441228027344C12.956926800155639,70.77560228027343,12.90612680015564,70.37719228027343,12.75372680015564,69.97877228027343C12.55052680015564,69.38116228027344,12.24562680015564,68.93294228027344,11.83912680015564,68.63413228027343C11.43262680015564,68.33532228027343,10.87374680015564,68.28552228027344,10.264026800155639,68.48473228027343C10.264026800155639,68.48473228027343,8.63809680015564,68.98274228027344,8.63809680015564,68.98274228027344C8.63809680015564,68.98274228027344,8.688906800155639,69.08234228027344,8.688906800155639,69.08234228027344C8.89214680015564,69.13215228027343,9.14619680015564,69.18195228027344,9.400246800155639,69.28156228027343C9.65429680015564,69.38116228027344,9.908356800155639,69.58036228027343,10.21321680015564,69.82937228027343C10.51807680015564,70.07838228027343,10.67050680015564,70.47679228027344,10.82293680015564,70.97481228027344C11.026176800155639,71.62223228027344,11.07698680015564,72.21984228027344,10.92455680015564,72.81746228027343C10.77212680015564,73.41508228027344,10.46726680015564,73.96290228027344,9.95916680015564,74.46092228027344C9.451056800155639,74.95893228027344,8.79052680015564,75.30754228027344,7.92674680015564,75.60635228027344C7.0629768001556394,75.85536228027344,6.2500068001556395,75.95496228027343,5.53866680015564,75.85536228027344C4.827316800155639,75.75576228027344,4.21759680015564,75.50675228027343,3.7094968001556397,75.10834228027343C3.20138680015564,74.70992228027343,2.84571680015564,74.16211228027343,2.64247680015564,73.51469228027344C2.49004680015564,73.01667228027344,2.4392368001556397,72.56846228027344,2.49004680015564,72.21984228027344C2.5408568001556397,71.87123228027343,2.6932868001556396,71.57242228027344,2.84571680015564,71.32342228027343C2.9981468001556397,71.07441228027344,3.1505768001556396,70.87520228027344,3.3030068001556394,70.72580228027344C3.3030068001556394,70.72580228027344,3.2521968001556396,70.62620228027343,3.2521968001556396,70.62620228027343C3.2521968001556396,70.62620228027343,1.9311298001556396,71.02461228027343,1.9311298001556396,71.02461228027343C1.9311298001556396,71.02461228027343,1.4230268001556396,69.48076228027344,1.4230268001556396,69.48076228027344C1.4230268001556396,69.48076228027344,9.80673680015564,66.89108028027344,9.80673680015564,66.89108028027344C10.51807680015564,66.69187408027344,11.12779680015564,66.64206948027343,11.68672680015564,66.84127528027344C12.24562680015564,67.04048228027344,12.70292680015564,67.33929128027344,13.10942680015564,67.83730228027343C13.51592680015564,68.33532228027343,13.871526800155639,68.83334228027344,14.07482680015564,69.53056228027344C14.07482680015564,69.53056228027344,14.07482680015564,69.53056228027344,14.07482680015564,69.53056228027344ZM9.400246800155639,70.97481228027344C9.24781680015564,70.52659228027343,9.044576800155639,70.17798228027344,8.688906800155639,69.92897228027344C8.333236800155639,69.67996228027344,7.977556800155639,69.53056228027344,7.52026680015564,69.53056228027344C7.0629768001556394,69.48076228027344,6.55486680015564,69.58036228027343,5.99595680015564,69.72977228027344C5.43704680015564,69.87917228027344,4.97974680015564,70.12818228027344,4.62407680015564,70.42699228027344C4.26840680015564,70.72579228027344,4.01435680015564,71.07441228027344,3.8619268001556395,71.42302228027344C3.7094968001556397,71.82143228027344,3.7094968001556397,72.21984228027344,3.8619268001556395,72.66806228027343C4.01435680015564,73.11627228027344,4.26840680015564,73.51469228027344,4.62407680015564,73.71389228027344C4.97974680015564,73.96290228027344,5.38623680015564,74.06250228027343,5.843526800155639,74.11231228027344C6.30081680015564,74.16211228027343,6.80892680015564,74.06250228027343,7.31702680015564,73.91310228027343C7.87593680015564,73.76369228027343,8.28242680015564,73.51469228027344,8.63809680015564,73.21588228027343C8.99376680015564,72.91707228027343,9.24781680015564,72.56846228027344,9.34943680015564,72.21984228027344C9.55267680015564,71.87123228027343,9.55267680015564,71.47282228027343,9.400246800155639,70.97481228027344C9.400246800155639,70.97481228027344,9.400246800155639,70.97481228027344,9.400246800155639,70.97481228027344Z" fill="#F58A07" fill-opacity="1"/></g><g><path d="M8.993151728563308,60.616246899414065C9.094771728563309,61.46287689941406,8.942341728563308,62.160096899414064,8.637481728563309,62.80751689941406C8.332621728563309,63.454936899414065,7.875321728563309,63.95295689941406,7.214791728563308,64.30156689941407C6.605071728563309,64.69997689941407,5.842911728563308,64.89918689941406,4.928321728563309,64.99878689941406C4.064551728563309,65.09838689941407,3.2515817285633086,64.99878689941406,2.5910517285633086,64.69997689941407C1.8797017285633086,64.45096689941406,1.3207917285633086,64.05255689941406,0.9143097285633087,63.50473689941406C0.5078267285633087,62.956926899414064,0.2537757285633087,62.30950689941406,0.15215482856330872,61.51267689941406C0.10134452856330872,61.01466689941406,0.15215482856330872,60.56644689941406,0.2537757285633087,60.118236899414065C0.3553957285633087,59.670016899414065,0.6094477285633086,59.22180689941406,0.9143097285633087,58.87319689941406C1.2191717285633088,58.47478689941406,1.6256517285633088,58.175977899414065,2.184571728563309,57.92696989941406C2.6926717285633086,57.677961899414065,3.3532017285633087,57.52855789941406,4.115361728563309,57.428954899414066C4.115361728563309,57.428954899414066,4.725081728563309,57.37914989941406,4.725081728563309,57.37914989941406C4.725081728563309,57.37914989941406,5.3348117285633085,64.05255689941406,5.3348117285633085,64.05255689941406C5.3348117285633085,64.05255689941406,4.064551728563309,64.15215689941407,4.064551728563309,64.15215689941407C4.064551728563309,64.15215689941407,3.6072617285633086,59.07240689941406,3.6072617285633086,59.07240689941406C3.1499617285633086,59.12220689941406,2.7942917285633087,59.22180689941406,2.4894317285633085,59.42101689941406C2.184571728563309,59.62021689941406,1.9305117285633087,59.919026899414064,1.7780817285633088,60.21783689941406C1.6256517285633088,60.51664689941406,1.5240317285633087,60.91505689941406,1.5748417285633087,61.36327689941406C1.6256517285633088,61.811486899414064,1.7780817285633088,62.20989689941406,2.0321417285633085,62.508706899414065C2.286191728563309,62.80751689941406,2.5910517285633086,63.05652689941406,2.9975317285633087,63.20592689941406C3.404011728563309,63.35533689941406,3.8105017285633087,63.40513689941406,4.216981728563309,63.35533689941406C4.216981728563309,63.35533689941406,5.182381728563309,63.25573689941406,5.182381728563309,63.25573689941406C5.741291728563309,63.20592689941406,6.2493917285633085,63.05652689941406,6.605071728563309,62.80751689941406C6.960741728563309,62.55850689941406,7.2656017285633085,62.25970689941406,7.468841728563309,61.91109689941406C7.6212717285633085,61.51267689941406,7.722891728563309,61.11426689941406,7.672081728563309,60.616246899414065C7.6212717285633085,60.31743689941406,7.570461728563309,60.01863689941406,7.468841728563309,59.769626899414064C7.367221728563309,59.520616899414065,7.214791728563308,59.321406899414065,7.011551728563309,59.12220689941406C6.808311728563309,58.972796899414064,6.554261728563309,58.823396899414064,6.300201728563309,58.77359689941406C6.300201728563309,58.77359689941406,6.452631728563309,57.17994689941406,6.452631728563309,57.17994689941406C6.909931728563309,57.279549999414066,7.367221728563309,57.42895389941406,7.722891728563309,57.72776289941406C8.078571728563308,58.026571899414066,8.383431728563309,58.375176899414065,8.637481728563309,58.87319689941406C8.891531728563308,59.37120689941406,8.942341728563308,60.01862689941406,8.993151728563308,60.616246899414065C8.993151728563308,60.616246899414065,8.993151728563308,60.616246899414065,8.993151728563308,60.616246899414065Z" fill="#F58A07" fill-opacity="1"/></g><g><path d="M3.65834,52.49793806274414C3.65834,52.49793806274414,8.73938,53.09554806274414,8.73938,53.09554806274414C8.73938,53.09554806274414,8.53614,54.73900806274414,8.53614,54.73900806274414C8.53614,54.73900806274414,0,53.74297806274414,0,53.74297806274414C0,53.74297806274414,0.203241,52.19912806274414,0.203241,52.19912806274414C0.203241,52.19912806274414,1.57512,52.34852806274414,1.57512,52.34852806274414C1.57512,52.34852806274414,1.57512,52.24892806274414,1.57512,52.24892806274414C1.16864,51.99991806274414,0.812965,51.65130806274414,0.609724,51.20308806274414C0.406483,50.75487806274414,0.304862,50.20705806274414,0.406483,49.60943806274414C0.457293,49.06161806274414,0.660534,48.56360806274414,0.965396,48.16518806274414C1.27026,47.76677906274414,1.67674,47.46797006274414,2.18484,47.31856606274414C2.69295,47.11935917711414,3.30267,47.06955606274414,4.01402,47.16915926274414C4.01402,47.16915926274414,9.45072,47.81658206274414,9.45072,47.81658206274414C9.45072,47.81658206274414,9.24748,49.46003806274414,9.24748,49.46003806274414C9.24748,49.46003806274414,3.96321,48.76281806274414,3.96321,48.76281806274414C3.35348,48.71300806274414,2.84538,48.81261806274414,2.4389,49.06161806274414C2.03241,49.36042806274414,1.82917,49.75884806274414,1.77836,50.30665806274414C1.72755,50.70507806274414,1.77836,51.00388806274414,1.93079,51.35249806274414C2.08322,51.65130806274414,2.28647,51.90030806274414,2.59133,52.14931806274414C2.84538,52.29872806274414,3.20105,52.44812806274414,3.65834,52.49793806274414C3.65834,52.49793806274414,3.65834,52.49793806274414,3.65834,52.49793806274414Z" fill="#F58A07" fill-opacity="1"/></g><g><path d="M11.331114476089478,41.79090338500976C11.077064476089477,42.537933385009765,10.670574476089477,43.18535338500976,10.111664476089476,43.58376338500977C9.552754476089477,44.03198338500977,8.892214476089478,44.28098338500976,8.180874476089478,44.38059338500977C7.469524476089478,44.48019338500976,6.6565644760894775,44.38059338500977,5.843594476089478,44.081783385009764C5.030634476089478,43.78297338500977,4.319284476089478,43.38455338500977,3.8111844760894775,42.886543385009766C3.3030804760894776,42.38852338500976,2.9474074760894777,41.79090338500976,2.7949768760894775,41.09368338500977C2.6425458760894776,40.396453385009764,2.6933562760894776,39.69923338500976,2.9474084760894774,38.95221338500976C3.1506494760894777,38.354593385009764,3.4555114760894776,37.85657338500977,3.8619944760894773,37.45815838500977C4.2684744760894775,37.05974538500976,4.7257744760894775,36.76093738500977,5.233874476089477,36.61153238500977C5.741974476089478,36.46212698500977,6.300894476089478,36.46212778500976,6.859804476089478,36.56173108500977C6.859804476089478,36.56173108500977,6.351704476089477,38.05578338500977,6.351704476089477,38.05578338500977C5.945214476089477,38.00598338500976,5.538734476089477,38.105583385009766,5.183064476089477,38.304793385009766C4.827394476089477,38.503993385009764,4.522524476089478,38.852603385009765,4.370094476089477,39.35062338500977C4.217664476089477,39.79884338500977,4.217664476089477,40.197253385009766,4.319284476089478,40.595663385009765C4.420904476089477,40.99407338500976,4.674954476089478,41.342683385009764,5.030634476089478,41.69130338500977C5.386304476089478,42.03991338500977,5.843594476089478,42.28892338500977,6.4533244760894775,42.48813338500977C7.063044476089478,42.687333385009765,7.5711444760894775,42.786943385009764,8.079254476089478,42.73713338500976C8.587354476089477,42.687333385009765,8.993834476089479,42.58773338500976,9.349514476089478,42.338723385009764C9.705184476089478,42.089713385009766,9.959234476089478,41.741103385009765,10.111664476089476,41.29289338500976C10.213284476089477,40.994083385009766,10.264094476089477,40.69526338500977,10.213284476089477,40.446263385009765C10.162474476089479,40.14745338500977,10.111664476089476,39.89844338500976,9.959234476089478,39.69923338500976C9.806804476089479,39.50002338500977,9.603564476089478,39.251023385009766,9.349514476089478,39.10161338500976C9.349514476089478,39.10161338500976,9.857614476089477,37.60756338500977,9.857614476089477,37.60756338500977C10.365714476089478,37.85657338500977,10.772204476089478,38.15538338500976,11.077064476089477,38.60360338500976C11.381924476089477,39.00201338500977,11.585164476089478,39.500033385009765,11.635974476089478,40.04784338500976C11.635974476089478,40.595663385009765,11.585164476089478,41.193283385009764,11.331114476089478,41.79090338500976C11.331114476089478,41.79090338500976,11.331114476089478,41.79090338500976,11.331114476089478,41.79090338500976Z" fill="#F58A07" fill-opacity="1"/></g><g><path d="M16.665985373687747,37.15975905456543C16.513485373687743,37.35895905456543,16.411885373687745,37.55815905456543,16.259485373687745,37.70755905456543C16.106985373687742,37.85695905456543,16.005385373687744,37.95655905456543,15.903785373687745,38.05615905456543C15.903785373687745,38.05615905456543,14.938385373687744,37.01035905456543,14.938385373687744,37.01035905456543C15.141635373687745,36.81115905456543,15.344875373687744,36.56215905456543,15.446495373687744,36.36295905456543C15.548115373687745,36.16365905456543,15.598885373687745,35.91469905456543,15.548115373687745,35.71548905456543C15.497305373687745,35.466479054565426,15.344875373687744,35.21746905456543,15.090825373687744,34.868859054565434C15.090825373687744,34.868859054565434,14.684335373687745,34.42064905456543,14.684335373687745,34.42064905456543C14.684335373687745,34.42064905456543,5.589285373687744,32.72738905456543,5.589285373687744,32.72738905456543C5.589285373687744,32.72738905456543,6.503871373687744,31.23333905456543,6.503871373687744,31.23333905456543C6.503871373687744,31.23333905456543,13.363265373687744,32.72738905456543,13.363265373687744,32.72738905456543C13.363265373687744,32.72738905456543,13.414075373687744,32.627789054565426,13.414075373687744,32.627789054565426C13.414075373687744,32.627789054565426,8.790335373687745,27.44840905456543,8.790335373687745,27.44840905456543C8.790335373687745,27.44840905456543,9.704925373687743,25.95435905456543,9.704925373687743,25.95435905456543C9.704925373687743,25.95435905456543,16.259485373687745,33.773229054565434,16.259485373687745,33.773229054565434C16.564285373687746,34.12183905456543,16.767585373687744,34.520249054565426,16.919985373687744,34.868859054565434C17.072385373687744,35.21746905456543,17.123185373687743,35.61588905456543,17.072385373687744,35.96445905456543C17.021585373687742,36.31305905456543,16.869185373687742,36.76135905456543,16.665985373687747,37.15975905456543C16.665985373687747,37.15975905456543,16.665985373687747,37.15975905456543,16.665985373687747,37.15975905456543Z" fill="#F58A07" fill-opacity="1"/></g><g><path d="M21.594425628356934,24.95825183105469C21.594425628356934,24.95825183105469,20.781465628356933,24.012051831054688,20.781465628356933,24.012051831054688C20.781465628356933,24.012051831054688,21.035515628356933,18.533831831054687,21.035515628356933,18.533831831054687C21.035515628356933,17.93621183105469,21.086325628356935,17.438191831054688,21.035515628356933,17.039781831054686C21.035515628356933,16.641371831054688,20.984705628356934,16.242951831054686,20.883085628356934,15.944141831054687C20.781455628356934,15.645331831054687,20.629035628356934,15.346521831054687,20.425785628356934,15.097511831054687C20.171735628356934,14.798701831054688,19.866875628356933,14.649301831054688,19.56201562835693,14.549701831054687C19.257155628356934,14.450091831054687,18.901475628356934,14.450091831054687,18.596615628356933,14.549701831054687C18.291755628356935,14.649301831054688,17.936085628356935,14.798701831054688,17.682025628356932,15.047711831054688C17.377165628356934,15.296721831054688,17.173925628356933,15.595531831054688,17.021495628356934,15.944141831054687C16.919875628356934,16.242951831054686,16.869065628356935,16.591561831054687,16.970685628356932,16.940181831054687C17.072305628356933,17.288791831054688,17.22473562835693,17.587601831054688,17.478785628356935,17.886411831054687C17.478785628356935,17.886411831054687,16.259341628356935,18.982041831054687,16.259341628356935,18.982041831054687C15.802048628356934,18.484031831054686,15.497185628356934,17.93621183105469,15.395565328356934,17.338591831054686C15.293944628356934,16.740971831054686,15.344755718356934,16.143351831054687,15.598807628356933,15.595531831054688C15.852858628356934,14.997911831054687,16.208530628356932,14.499891831054688,16.767445628356935,14.051681831054687C17.326355628356932,13.603464831054687,17.885275628356933,13.304654831054687,18.494995628356932,13.155249831054688C19.104725628356935,13.005844431054687,19.663635628356936,13.005844631054687,20.222545628356933,13.205051831054687C20.781465628356933,13.354456831054687,21.238755628356934,13.653266831054687,21.645235628356932,14.151281831054687C21.950095628356934,14.450091831054687,22.153345628356934,14.798701831054688,22.305775628356933,15.246921831054689C22.458205628356936,15.645331831054687,22.559825628356933,16.143351831054687,22.559825628356933,16.790771831054688C22.559825628356933,17.438191831054688,22.559825628356933,18.185221831054687,22.509015628356934,19.181251831054688C22.509015628356934,19.181251831054688,22.35658562835693,22.26896183105469,22.35658562835693,22.26896183105469C22.35658562835693,22.26896183105469,22.407395628356934,22.318761831054687,22.407395628356934,22.318761831054687C22.407395628356934,22.318761831054687,26.268995628356933,18.982041831054687,26.268995628356933,18.982041831054687C26.268995628356933,18.982041831054687,27.234395628356936,20.077681831054687,27.234395628356936,20.077681831054687C27.234395628356936,20.077681831054687,21.594425628356934,24.95825183105469,21.594425628356934,24.95825183105469C21.594425628356934,24.95825183105469,21.594425628356934,24.95825183105469,21.594425628356934,24.95825183105469Z" fill="#F58A07" fill-opacity="1"/></g><g><path d="M33.02710913024902,16.94018377532959C32.26494913024902,17.338683775329592,31.451979130249022,17.488083775329592,30.689829130249024,17.38848377532959C29.927669130249022,17.288883775329587,29.165519130249024,16.94018377532959,28.454169130249024,16.29278377532959C27.742829130249024,15.695183775329589,27.082289130249023,14.84855377532959,26.523379130249022,13.75292377532959C25.913651130249022,12.657283775329589,25.557977130249025,11.711053775329589,25.456356730249023,10.76481377532959C25.354735930249024,9.86838377532959,25.456357930249023,9.07156377532959,25.761220130249022,8.374333775329589C26.116893130249025,7.67711377532959,26.624999130249023,7.1292937753295895,27.437959130249023,6.73087977532959C28.200119130249025,6.33246637532959,28.962269130249023,6.18306137532959,29.775239130249023,6.2826647753295894C30.588209130249023,6.3822677753295896,31.299549130249023,6.73087977532959,32.01089913024902,7.32850377532959C32.72223913024902,7.9261237753295894,33.38277913024902,8.77275377532959,33.941689130249024,9.81858377532959C34.55141913024902,10.914223775329589,34.90708913024902,11.91025377532959,35.008709130249024,12.806683775329589C35.161139130249026,13.70312377532959,35.05951913024902,14.54974377532959,34.703849130249026,15.19717377532959C34.34817913024902,15.94419377532959,33.78925913024902,16.49198377532959,33.02710913024902,16.94018377532959C33.02710913024902,16.94018377532959,33.02710913024902,16.94018377532959,33.02710913024902,16.94018377532959ZM32.31575913024902,15.64538377532959C32.97628913024902,15.29677377532959,33.33196913024902,14.69915377532959,33.38277913024902,13.80272377532959C33.433589130249025,12.95609377532959,33.07791913024902,11.91025377532959,32.417379130249024,10.66521377532959C31.960089130249024,9.86838377532959,31.502789130249024,9.22096377532959,30.99468913024902,8.72294377532959C30.486589130249023,8.224933775329589,30.029289130249023,7.9261237753295894,29.521189130249024,7.82651377532959C29.013079130249025,7.72691377532959,28.555789130249025,7.77671377532959,28.098499130249024,8.02572377532959C27.437959130249023,8.374333775329589,27.082289130249023,8.97195377532959,27.031479130249025,9.86838377532959C26.980669130249023,10.71501377532959,27.336339130249023,11.76085377532959,27.996879130249024,13.00589377532959C28.454169130249024,13.85252377532959,28.911469130249024,14.499943775329589,29.419569130249023,14.94816377532959C29.927669130249022,15.44617377532959,30.384969130249022,15.695183775329589,30.893069130249025,15.84459377532959C31.350359130249025,15.94419377532959,31.858469130249023,15.89439377532959,32.31575913024902,15.64538377532959C32.31575913024902,15.64538377532959,32.31575913024902,15.64538377532959,32.31575913024902,15.64538377532959Z" fill="#F58A07" fill-opacity="1"/></g><g><path d="M38.920779908447265,13.952106464004517C38.920779908447265,13.952106464004517,38.565099908447266,12.756906464004517,38.565099908447266,12.756906464004517C38.565099908447266,12.756906464004517,41.207239908447264,7.926136464004516,41.207239908447264,7.926136464004516C41.51209990844727,7.428116464004517,41.715349908447266,6.930096464004516,41.86777990844727,6.5814864640045165C42.020209908447264,6.183076464004516,42.172639908447266,5.8344664640045165,42.223449908447265,5.535656464004516C42.27425990844726,5.2368464640045165,42.27425990844726,4.888226464004516,42.172639908447266,4.5894164640045165C42.07101990844727,4.240806464004517,41.91858990844727,3.9419964640045166,41.66453990844727,3.742796464004517C41.410479908447265,3.543586464004517,41.10561990844727,3.3941764640045164,40.80075990844726,3.3443764640045166C40.445089908447265,3.2945764640045168,40.089409908447266,3.2945764640045168,39.73373990844726,3.3941764640045164C39.32725990844727,3.4937864640045166,39.02239990844726,3.692986464004517,38.76834990844726,3.892196464004517C38.51428990844727,4.141206464004517,38.361859908447265,4.4400164640045165,38.26023990844727,4.738826464004516C38.158619908447264,5.037636464004517,38.20942990844726,5.436046464004517,38.311049908447266,5.8344664640045165C38.311049908447266,5.8344664640045165,36.735930908447266,6.282676464004517,36.735930908447266,6.282676464004517C36.532689608447264,5.635256464004517,36.532689608447264,4.987836464004516,36.735930908447266,4.4400164640045165C36.888361908447266,3.8423964640045165,37.24403190844727,3.3443764640045166,37.70132990844726,2.945966464004517C38.158619908447264,2.5475514640045165,38.71752990844727,2.2487414640045165,39.428879908447264,2.0495344640045166C40.140219908447264,1.8503279640045167,40.74994990844726,1.8503280640045165,41.359669908447266,1.9499313640045166C41.969399908447265,2.0495344640045166,42.477499908447264,2.3483444640045166,42.934789908447264,2.6969564640045167C43.34127990844726,3.095366464004517,43.64613990844727,3.543586464004517,43.84937990844727,4.141206464004517C43.950999908447265,4.539616464004517,44.001809908447264,4.938036464004517,43.950999908447265,5.3862464640045165C43.90018990844727,5.8344664640045165,43.747759908447264,6.332476464004516,43.493709908447265,6.880296464004517C43.239659908447265,7.428116464004517,42.88398990844726,8.175136464004517,42.426689908447266,9.021766464004518C42.426689908447266,9.021766464004518,40.85156990844727,11.860466464004517,40.85156990844727,11.860466464004517C40.85156990844727,11.860466464004517,40.85156990844727,11.960106464004516,40.85156990844727,11.960106464004516C40.85156990844727,11.960106464004516,45.83097990844726,10.615426464004516,45.83097990844726,10.615426464004516C45.83097990844726,10.615426464004516,46.23746990844727,12.009906464004517,46.23746990844727,12.009906464004517C46.23746990844727,12.009906464004517,38.920779908447265,13.952106464004517,38.920779908447265,13.952106464004517C38.920779908447265,13.952106464004517,38.920779908447265,13.952106464004517,38.920779908447265,13.952106464004517Z" fill="#F58A07" fill-opacity="1"/></g><g><path d="M52.74144228271484,11.5615C51.877662282714844,11.6113,51.115512282714846,11.4121,50.45497228271484,10.9638C49.79444228271485,10.5156,49.28634228271484,9.918,48.93066528271484,9.07137C48.574992282714845,8.22475,48.371749282714845,7.17891,48.270129082714845,5.98367C48.21931868271484,4.78843,48.32093778271484,3.7426,48.62580028271484,2.84617C48.93066228271484,1.94974,49.387962282714845,1.30231,49.99768228271484,0.804297C50.607402282714844,0.30628,51.369562282714845,0.0572719,52.233342282714844,0.00747025C53.097112282714846,-0.0423314,53.85927228271484,0.156875,54.51980228271484,0.60509C55.18033228271484,1.05331,55.688442282714846,1.65093,56.04411228271484,2.49755C56.399782282714845,3.34418,56.653832282714845,4.39002,56.70464228271484,5.58526C56.75545228271484,6.8303,56.653832282714845,7.87613,56.34897228271484,8.72276C56.04411228271484,9.56939,55.58682228271484,10.2666,55.02790228271484,10.7646C54.36737228271485,11.2626,53.656022282714844,11.5117,52.74144228271484,11.5615C52.74144228271484,11.5615,52.74144228271484,11.5615,52.74144228271484,11.5615ZM52.69062228271484,10.1172C53.45278228271484,10.0674,54.062502282714846,9.66899,54.468992282714844,8.92197C54.875472282714846,8.17494,55.02790228271484,7.07931,54.97709228271484,5.68486C54.926282282714844,4.73863,54.77385228271484,3.9916,54.57061228271485,3.34418C54.36737228271485,2.69676,54.01169228271485,2.24855,53.656022282714844,1.89993C53.24954228271484,1.60112,52.84306228271485,1.45172,52.334952282714845,1.45172C51.57280228271485,1.50152,50.96308228271484,1.89993,50.556592282714846,2.64696C50.150112282714844,3.39398,49.99768228271484,4.48962,50.04849228271485,5.88407C50.099302282714845,6.8303,50.25173228271484,7.62713,50.45497228271484,8.22475C50.65821228271484,8.82237,51.013882282714846,9.32038,51.369562282714845,9.66899C51.72523228271484,10.0176,52.18252228271484,10.1172,52.69062228271484,10.1172C52.69062228271484,10.1172,52.69062228271484,10.1172,52.69062228271484,10.1172Z" fill="#F58A07" fill-opacity="1"/></g><g><path d="M70.93156494384766,7.378176353302002C70.93156494384766,7.378176353302002,70.57588494384765,8.772626353302002,70.57588494384765,8.772626353302002C70.57588494384765,8.772626353302002,65.64725494384766,7.477786353302002,65.64725494384766,7.477786353302002C65.64725494384766,7.477786353302002,66.00292794384765,6.083336353302002,66.00292794384765,6.083336353302002C66.00292794384765,6.083336353302002,70.93156494384766,7.378176353302002,70.93156494384766,7.378176353302002C70.93156494384766,7.378176353302002,70.93156494384766,7.378176353302002,70.93156494384766,7.378176353302002Z" fill="#F58A07" fill-opacity="1"/></g><g><path d="M76.41910552978516,16.39197583129883C76.41910552978516,16.39197583129883,77.07964252978516,15.346135831298827,77.07964252978516,15.346135831298827C77.07964252978516,15.346135831298827,82.51635552978516,14.051295831298829,82.51635552978516,14.051295831298829C83.07526552978516,13.901885831298827,83.58337552978516,13.752485831298827,83.98986552978516,13.652875831298829C84.39634552978515,13.553275831298828,84.75201552978515,13.354075831298829,85.00606552978516,13.20466583129883C85.26012552978516,13.05526583129883,85.51417552978515,12.806255831298827,85.66660552978516,12.507445831298828C85.86984552978515,12.208635831298828,85.97146552978515,11.860025831298827,85.97146552978515,11.561215831298828C85.97146552978515,11.212595831298827,85.86984552978515,10.913785831298828,85.71741552978516,10.664785831298829C85.51417552978515,10.365975831298828,85.26011552978515,10.116965831298828,84.95525552978515,9.917755831298829C84.59958552978516,9.718545831298828,84.24391552978516,9.569145831298828,83.88824552978515,9.569145831298828C83.53256552978516,9.569145831298828,83.22770552978515,9.618945831298827,82.92283552978516,9.768355831298829C82.61797552978516,9.917755831298829,82.36392552978515,10.166765831298829,82.16068552978516,10.515375831298828C82.16068552978516,10.515375831298828,80.78880552978515,9.668745831298828,80.78880552978515,9.668745831298828C81.14447552978515,9.071127831298828,81.60176552978515,8.672714831298828,82.16068552978516,8.423706831298828C82.71959552978515,8.174698131298829,83.27851552978515,8.075094531298829,83.93904552978516,8.124896231298829C84.54877552978516,8.174697931298828,85.15850552978516,8.373904831298828,85.76822552978516,8.772318831298827C86.37795552978515,9.170735831298828,86.83520552978516,9.618945831298827,87.14010552978516,10.116965831298828C87.44500552978516,10.664785831298829,87.59740552978516,11.212595831298827,87.59740552978516,11.760415831298829C87.59740552978516,12.308235831298827,87.44500552978516,12.856055831298828,87.08930552978515,13.35406583129883C86.88600552978515,13.702685831298828,86.58120552978515,14.00149583129883,86.22551552978516,14.250505831298828C85.86984552978515,14.499505831298828,85.41254552978515,14.748515831298828,84.80282552978515,14.947725831298829C84.19309552978515,15.146925831298828,83.43094552978516,15.346135831298827,82.46554552978516,15.59514583129883C82.46554552978516,15.59514583129883,79.26449552978515,16.39197583129883,79.26449552978515,16.39197583129883C79.26449552978515,16.39197583129883,79.21367552978515,16.441775831298827,79.21367552978515,16.441775831298827C79.21367552978515,16.441775831298827,83.58337552978516,19.131045831298827,83.58337552978516,19.131045831298827C83.58337552978516,19.131045831298827,82.77040552978515,20.376145831298828,82.77040552978515,20.376145831298828C82.77040552978515,20.376145831298828,76.41910552978516,16.39197583129883,76.41910552978516,16.39197583129883C76.41910552978516,16.39197583129883,76.41910552978516,16.39197583129883,76.41910552978516,16.39197583129883Z" fill="#F58A07" fill-opacity="1"/></g><g><path d="M87.49536897705079,24.80882080291748C86.88564297705078,24.21120080291748,86.52997197705078,23.51397080291748,86.37754127705078,22.76695080291748C86.27592057705078,22.019920802917483,86.37754287705079,21.22310080291748,86.78402597705077,20.37647080291748C87.19050897705078,19.52984080291748,87.80023897705078,18.68321080291748,88.71481897705078,17.83658080291748C89.57859897705077,16.98995080291748,90.44236897705078,16.34253080291748,91.30614897705078,15.99391880291748C92.16991897705078,15.59550540291748,92.98288897705078,15.49590240291748,93.74503897705078,15.595505802917481C94.50719897705078,15.695108802917481,95.21854897705079,16.09352280291748,95.82826897705078,16.69114080291748C96.43798897705078,17.28876080291748,96.79368897705078,17.98599080291748,96.94608897705078,18.73301080291748C97.04768897705078,19.48004080291748,96.94608897705078,20.27686080291748,96.53958897705078,21.12349080291748C96.13312897705077,21.97012080291748,95.52340897705078,22.816750802917483,94.65962897705079,23.66338080291748C93.79585897705078,24.51001080291748,92.88126897705078,25.15743080291748,92.06829897705079,25.506040802917482C91.20451897705078,25.904480802917483,90.39155897705078,26.00408080291748,89.62939897705078,25.904480802917483C88.81643897705078,25.80488080291748,88.10508897705078,25.40644080291748,87.49536897705079,24.80882080291748C87.49536897705079,24.80882080291748,87.49536897705079,24.80882080291748,87.49536897705079,24.80882080291748ZM88.56238897705079,23.762980802917482C89.12129897705078,24.31080080291748,89.78182897705078,24.46021080291748,90.64560897705078,24.26100080291748C91.50938897705078,24.06179080291748,92.42396897705078,23.41437080291748,93.44017897705078,22.468140802917482C94.10070897705079,21.82072080291748,94.60881897705079,21.17329080291748,94.96448897705078,20.57567080291748C95.26934897705078,19.97805080291748,95.42178897705078,19.43024080291748,95.42178897705078,18.93222080291748C95.42178897705078,18.43420080291748,95.21853897705078,18.035790802917482,94.86286897705078,17.63738080291748C94.30395897705078,17.08956080291748,93.64342897705077,16.94015080291748,92.77964897705078,17.13936080291748C91.91586897705078,17.33857080291748,91.00128897705078,17.98599080291748,89.98507897705078,18.93222080291748C89.32454897705078,19.57964080291748,88.81643897705078,20.22706080291748,88.46076897705078,20.82468080291748C88.15590897705079,21.42230080291748,88.00346897705079,21.97012080291748,88.00346897705079,22.468140802917482C88.00346897705079,23.01596080291748,88.20671897705078,23.41437080291748,88.56238897705079,23.762980802917482C88.56238897705079,23.762980802917482,88.56238897705079,23.762980802917482,88.56238897705079,23.762980802917482Z" fill="#F58A07" fill-opacity="1"/></g><g><path d="M92.06849670410156,29.53942775512695C92.06849670410156,29.53942775512695,93.13551670410156,28.892007755126954,93.13551670410156,28.892007755126954C93.13551670410156,28.892007755126954,98.57220670410156,30.037447755126955,98.57220670410156,30.037447755126955C99.18192670410156,30.137047755126954,99.69002670410157,30.236657755126952,100.09650670410156,30.286457755126953C100.50298670410156,30.33625775512695,100.90946670410156,30.33625775512695,101.21433670410156,30.286457755126953C101.51919670410156,30.236657755126952,101.82405670410157,30.137047755126954,102.12889670410156,29.937837755126953C102.43379670410157,29.738637755126952,102.68779670410156,29.489627755126953,102.84029670410156,29.190817755126954C102.99269670410156,28.892007755126954,103.04349670410156,28.59319775512695,102.99269670410156,28.244587755126954C102.94189670410157,27.895977755126953,102.84029670410156,27.597167755126954,102.63699670410156,27.248557755126953C102.43379670410157,26.899937755126953,102.17969670410156,26.650937755126954,101.87486670410156,26.501527755126954C101.57000670410156,26.352127755126954,101.26514670410157,26.252517755126952,100.90947670410156,26.302317755126953C100.55380670410156,26.302317755126953,100.19813670410156,26.451727755126953,99.89327670410157,26.650937755126954C99.89327670410157,26.650937755126954,99.02949670410156,25.256486755126954,99.02949670410156,25.256486755126954C99.63921670410156,24.907875755126952,100.19812670410157,24.708667755126953,100.85866670410157,24.708667755126953C101.51919670410156,24.708667755126953,102.02729670410156,24.858073755126952,102.58619670410157,25.15688375512695C103.14509670410156,25.45569375512695,103.60239670410157,25.90390775512695,103.95809670410156,26.501527755126954C104.36459670410156,27.099147755126953,104.56779670410157,27.696767755126952,104.61859670410156,28.29438775512695C104.66939670410156,28.892007755126954,104.56779670410157,29.439827755126952,104.31379670410156,29.987647755126954C104.05969670410155,30.53546775512695,103.65319670410156,30.933877755126954,103.14509670410156,31.232687755126953C102.78949670410157,31.431897755126954,102.38299670410156,31.581297755126954,101.97648670410156,31.680897755126953C101.57000670410156,31.780507755126955,101.01109670410156,31.780507755126955,100.40137670410157,31.680897755126953C99.79165670410157,31.63109775512695,98.97868670410156,31.48169775512695,98.01328670410156,31.282487755126954C98.01328670410156,31.282487755126954,94.76143670410156,30.635067755126954,94.76143670410156,30.635067755126954C94.76143670410156,30.635067755126954,94.71062670410156,30.68486775512695,94.71062670410156,30.68486775512695C94.71062670410156,30.68486775512695,97.45437670410156,34.96776775512696,97.45437670410156,34.96776775512696C97.45437670410156,34.96776775512696,96.18412670410156,35.71486775512695,96.18412670410156,35.71486775512695C96.18412670410156,35.71486775512695,92.06849670410156,29.53942775512695,92.06849670410156,29.53942775512695C92.06849670410156,29.53942775512695,92.06849670410156,29.53942775512695,92.06849670410156,29.53942775512695Z" fill="#F58A07" fill-opacity="1"/></g><g><path d="M109.4456139404297,38.205007900390626C109.4456139404297,38.205007900390626,98.72463794042969,42.18913790039063,98.72463794042969,42.18913790039063C98.72463794042969,42.18913790039063,98.11491394042969,40.59548790039062,98.11491394042969,40.59548790039062C98.11491394042969,40.59548790039062,107.20998394042968,37.20897790039062,107.20998394042968,37.20897790039062C107.20998394042968,37.20897790039062,107.20998394042968,37.159177900390624,107.20998394042968,37.159177900390624C107.20998394042968,37.159177900390624,104.56784394042968,35.266719900390626,104.56784394042968,35.266719900390626C104.56784394042968,35.266719900390626,106.09215394042968,34.669097900390625,106.09215394042968,34.669097900390625C106.09215394042968,34.669097900390625,108.83591394042969,36.66115790039063,108.83591394042969,36.66115790039063C108.83591394042969,36.66115790039063,109.4456139404297,38.205007900390626,109.4456139404297,38.205007900390626C109.4456139404297,38.205007900390626,109.4456139404297,38.205007900390626,109.4456139404297,38.205007900390626Z" fill="#F58A07" fill-opacity="1"/></g><g><path d="M116.00014807128906,51.25330151367187C116.00014807128906,51.25330151367187,97.25107307128906,53.14576151367187,97.25107307128906,53.14576151367187C97.25107307128906,53.14576151367187,97.09864807128906,51.70152151367188,97.09864807128906,51.70152151367188C97.09864807128906,51.70152151367188,115.84764807128906,49.809051513671875,115.84764807128906,49.809051513671875C115.84764807128906,49.809051513671875,116.00014807128906,51.25330151367187,116.00014807128906,51.25330151367187C116.00014807128906,51.25330151367187,116.00014807128906,51.25330151367187,116.00014807128906,51.25330151367187Z" fill="#F58A07" fill-opacity="1"/></g><g><path d="M112.03668951416016,64.30146067749024C112.03668951416016,64.30146067749024,100.65518951416016,62.95681067749023,100.65518951416016,62.95681067749023C100.65518951416016,62.95681067749023,100.85842751416016,61.313350677490234,100.85842751416016,61.313350677490234C100.85842751416016,61.313350677490234,112.23988951416015,62.658000677490236,112.23988951416015,62.658000677490236C112.23988951416015,62.658000677490236,112.03668951416016,64.30146067749024,112.03668951416016,64.30146067749024C112.03668951416016,64.30146067749024,112.03668951416016,64.30146067749024,112.03668951416016,64.30146067749024Z" fill="#F58A07" fill-opacity="1"/></g><g><path d="M99.13108295410156,69.1319907788086C99.33432395410156,68.3849707788086,99.74080295410157,67.7375507788086,100.24890295410157,67.2893327788086C100.75700295410157,66.8411177788086,101.41753295410156,66.5423057788086,102.12887295410157,66.39290067880859C102.84022295410156,66.24349557880859,103.65318295410157,66.29329877880859,104.51695295410155,66.54230777880859C105.38072295410156,66.7913157788086,106.09206295410156,67.1399267788086,106.65097295410156,67.6379407788086C107.20988295410156,68.1359607788086,107.56556295410157,68.73358077880859,107.76880295410156,69.3810007788086C107.97204295410157,70.0284207788086,107.92123295410155,70.77545077880859,107.71799295410156,71.5224807788086C107.51475295410157,72.26950077880859,107.10827295410157,72.91692077880859,106.60017295410157,73.3651407788086C106.09207295410157,73.8133507788086,105.43154295410156,74.11217077880859,104.72019295410156,74.26157077880859C104.00885295410156,74.4109807788086,103.19588295410156,74.3611707788086,102.33211295410156,74.1121607788086C101.46834295410156,73.86316077880859,100.75700295410157,73.5145507788086,100.24890295410157,73.0165307788086C99.68999295410157,72.51851077880859,99.33432395410156,71.9208907788086,99.13108295410156,71.27347077880859C98.92784295410156,70.62605077880859,98.92784295410156,69.8790207788086,99.13108295410156,69.1319907788086C99.13108295410156,69.1319907788086,99.13108295410156,69.1319907788086,99.13108295410156,69.1319907788086ZM100.50295295410156,69.53041077880859C100.35052295410156,70.0284307788086,100.35052295410156,70.47664077880859,100.55376295410156,70.8750507788086C100.75700295410157,71.27347077880859,101.01105295410156,71.6220807788086,101.41754295410156,71.8710907788086C101.82402295410157,72.1699007788086,102.28131295410157,72.36911077880859,102.78941295410156,72.51851077880859C103.29751295410156,72.6679207788086,103.80561295410156,72.7177107788086,104.31371295410156,72.7177107788086C104.82181295410156,72.66791077880859,105.22829295410156,72.5683107788086,105.58396295410157,72.3193007788086C105.93964295410156,72.0702907788086,106.19369295410156,71.72168077880859,106.34612295410156,71.2236607788086C106.49855295410157,70.7256507788086,106.49854295410157,70.2774307788086,106.29530295410156,69.8790207788086C106.14287295410156,69.4806107788086,105.83801295410156,69.1319907788086,105.43153295410156,68.8331807788086C105.02505295410157,68.5343707788086,104.56776295410157,68.3351607788086,104.05966295410157,68.1857607788086C103.55156295410157,68.0363507788086,103.04346295410156,67.98655077880859,102.53536295410156,67.98655077880859C102.02726295410156,68.0363507788086,101.62077295410157,68.1359607788086,101.26510295410156,68.4347707788086C100.90943295410156,68.6837707788086,100.65538295410157,69.03239077880859,100.50295295410156,69.53041077880859C100.50295295410156,69.53041077880859,100.50295295410156,69.53041077880859,100.50295295410156,69.53041077880859Z" fill="#F58A07" fill-opacity="1"/></g><g><path d="M100.96020011962891,78.8932779736328C100.96020011962891,78.8932779736328,96.4888801196289,76.50280797363281,96.4888801196289,76.50280797363281C96.4888801196289,76.50280797363281,97.30185011962891,75.05854797363281,97.30185011962891,75.05854797363281C97.30185011962891,75.05854797363281,104.8725601196289,79.04268797363281,104.8725601196289,79.04268797363281C104.8725601196289,79.04268797363281,104.11046011962891,80.43713797363282,104.11046011962891,80.43713797363282C104.11046011962891,80.43713797363282,102.8910001196289,79.78971797363282,102.8910001196289,79.78971797363282C102.8910001196289,79.78971797363282,102.84018011962891,79.88931797363281,102.84018011962891,79.88931797363281C103.1450401196289,80.28772797363281,103.2974801196289,80.68614797363281,103.3482901196289,81.18416797363281C103.39910011962891,81.68218797363281,103.2466701196289,82.18019797363281,102.94181011962891,82.7778179736328C102.6877601196289,83.27583797363282,102.3320801196289,83.67425797363282,101.87479011962891,83.92325797363281C101.4683001196289,84.17226797363281,100.96020011962891,84.32167797363282,100.45210011962891,84.32167797363282C99.89318011962891,84.32167797363282,99.33427011962891,84.12246797363281,98.7245501196289,83.8236579736328C98.7245501196289,83.8236579736328,93.8975601196289,81.28376797363282,93.8975601196289,81.28376797363282C93.8975601196289,81.28376797363282,94.71052111962891,79.83951797363281,94.71052111962891,79.83951797363281C94.71052111962891,79.83951797363281,99.33427011962891,82.27979797363281,99.33427011962891,82.27979797363281C99.89318011962891,82.57861797363282,100.40129011962891,82.67821797363281,100.85858011962891,82.52880797363281C101.31587011962891,82.42920797363281,101.6715401196289,82.13039797363281,101.97641011962891,81.63237797363281C102.1796501196289,81.28376797363282,102.2304601196289,80.98495797363282,102.2304601196289,80.63634797363281C102.2304601196289,80.28772797363281,102.1288401196289,79.98892797363281,101.92560011962891,79.69011797363281C101.6715501196289,79.39129797363282,101.36668011962891,79.14228797363282,100.96020011962891,78.8932779736328C100.96020011962891,78.8932779736328,100.96020011962891,78.8932779736328,100.96020011962891,78.8932779736328Z" fill="#F58A07" fill-opacity="1"/></g><g><path d="M90.08671654296874,85.76557310302735C90.54401654296875,85.26755610302735,91.10292654296875,84.91894910302734,91.71264654296876,84.71974310302734C92.32237654296875,84.57033790302734,92.98290654296875,84.57033330302734,93.69424654296876,84.76954010302734C94.40559654296875,84.96874610302734,95.11694654296875,85.36716310302734,95.77747654296874,85.96478310302734C96.43801654296875,86.56240310302735,96.99692654296875,87.20981310302734,97.25097654296874,87.85723310302734C97.55585654296875,88.50466310302734,97.65745654296875,89.15208310302734,97.55585654296875,89.79950310302735C97.45425654296875,90.44692310302734,97.20016654296874,90.99474310302735,96.74287654296874,91.49275310302734C96.38719654296875,91.89117310302734,96.03153654296875,92.14018310302734,95.67585654296875,92.28958310302734C95.32018654296876,92.43899310302734,95.01531654296875,92.48879310302735,94.71045654296876,92.43899310302734C94.40559654296875,92.43899310302734,94.15154654296875,92.38918310302735,93.94830654296875,92.33938310302734C93.94830654296875,92.33938310302734,93.89749654296875,92.38918310302735,93.89749654296875,92.38918310302735C93.89749654296875,92.38918310302735,97.09854654296875,95.12824310302734,97.09854654296875,95.12824310302734C97.09854654296875,95.12824310302734,95.98071654296875,96.37334310302734,95.98071654296875,96.37334310302734C95.98071654296875,96.37334310302734,87.34295654296875,89.00267310302735,87.34295654296875,89.00267310302735C87.34295654296875,89.00267310302735,88.40997654296875,87.80744310302734,88.40997654296875,87.80744310302734C88.40997654296875,87.80744310302734,89.42618654296875,88.65406310302734,89.42618654296875,88.65406310302734C89.42618654296875,88.65406310302734,89.52780654296875,88.55446310302735,89.52780654296875,88.55446310302735C89.47699654296875,88.35526310302734,89.37537654296875,88.10625310302734,89.32456654296875,87.80744310302734C89.27375654296875,87.50863310302735,89.27374654296875,87.20981310302734,89.37536654296875,86.86120310302735C89.47698654296875,86.51259310302734,89.73104654296876,86.16398310302735,90.08671654296874,85.76557310302735C90.08671654296874,85.76557310302735,90.08671654296874,85.76557310302735,90.08671654296874,85.76557310302735ZM90.89967654296875,86.96081310302735C90.59481654296874,87.30942310302734,90.39157654296875,87.70783310302734,90.39157654296875,88.10624310302734C90.39157654296875,88.50466310302734,90.49320654296875,88.95287310302734,90.69644654296874,89.35128310302734C90.95049654296875,89.74970310302734,91.25535654296876,90.19791310302735,91.71264654296876,90.54653310302734C92.16994654296875,90.94494310302734,92.62723654296875,91.19394310302735,93.08452654296875,91.34335310302734C93.54181654296875,91.49275310302734,93.94830654296875,91.54256310302735,94.35478654296875,91.44296310302734C94.76126654296876,91.34335310302734,95.11694654296875,91.14414310302735,95.42180654296875,90.79553310302734C95.72666654296876,90.44692310302734,95.92991654296875,90.04851310302735,95.92991654296875,89.60029310302734C95.92991654296875,89.20188310302734,95.82828654296875,88.75366310302735,95.62504654296875,88.35525310302734C95.37099654296875,87.95684310302734,95.06613654296875,87.55843310302734,94.65965654296875,87.20982310302735C94.20235654296874,86.86121310302734,93.79587654296876,86.56240310302735,93.33857654296875,86.41299310302735C92.88128654296875,86.26359310302735,92.42399654296875,86.21378310302734,92.01751654296875,86.26358310302734C91.61103654296875,86.36319310302734,91.25535654296876,86.61220310302734,90.89967654296875,86.96081310302735C90.89967654296875,86.96081310302735,90.89967654296875,86.96081310302735,90.89967654296875,86.96081310302735Z" fill="#F58A07" fill-opacity="1"/></g><g><path d="M82.3129811352539,92.93762855029297C82.9735211352539,92.48941455029296,83.63405113525391,92.19060195029297,84.34540113525391,92.14080035029296C85.0567511352539,92.09099875029297,85.71728113525391,92.19060345029297,86.37782113525391,92.53921455029297C87.0383511352539,92.88782555029297,87.6480811352539,93.38583655029296,88.1561811352539,94.08305655029297C88.6642911352539,94.78028655029297,89.01996113525391,95.47750655029297,89.1723911352539,96.22452655029296C89.3248211352539,96.92175655029297,89.2232011352539,97.61897655029297,88.96915113525391,98.26639655029297C88.7151011352539,98.91381655029296,88.25780113525391,99.46163655029297,87.5972611352539,99.95964655029297C86.93673113525391,100.40786655029297,86.27619113525391,100.70667655029297,85.5648511352539,100.75647655029297C84.85350113525391,100.80627655029296,84.19297113525391,100.65687655029296,83.5324311352539,100.35806655029297C82.8718911352539,100.00945655029297,82.26217113525391,99.51143655029297,81.75407113525391,98.81420655029297C81.2459621352539,98.11698655029296,80.89029313525391,97.41977655029297,80.78867183525391,96.67274655029297C80.68705093525391,95.92572655029296,80.7378582852539,95.27829655029296,80.9919101352539,94.63087655029297C81.1951521352539,93.93365655029297,81.6524491352539,93.38584655029297,82.3129811352539,92.93762855029297C82.3129811352539,92.93762855029297,82.3129811352539,92.93762855029297,82.3129811352539,92.93762855029297ZM83.1259511352539,94.03326655029296C82.71947113525391,94.33207655029297,82.4654111352539,94.68067655029297,82.3129811352539,95.12889655029296C82.16055113525391,95.57710655029297,82.21137113525391,95.97552655029297,82.36380113525391,96.42373655029297C82.5162311352539,96.87195655029296,82.71947113525391,97.32016655029297,83.0751411352539,97.76838655029297C83.3800011352539,98.21659655029296,83.78648113525391,98.56520655029297,84.19297113525391,98.81420655029297C84.5994511352539,99.06321655029296,85.0059311352539,99.21262655029297,85.4632311352539,99.26242655029297C85.9205211352539,99.31222655029296,86.32700113525391,99.16282655029296,86.7334911352539,98.81420655029297C87.1399711352539,98.51539655029296,87.44484113525391,98.16678655029297,87.5464611352539,97.71857655029297C87.6480811352539,97.27036655029296,87.6480811352539,96.87195655029296,87.4956411352539,96.37393655029297C87.34321113525391,95.92571655029298,87.1399711352539,95.47750655029297,86.78430113525391,95.02929655029297C86.47944113525391,94.58107655029296,86.0729611352539,94.23246655029297,85.6664711352539,93.98345655029297C85.25999113525391,93.73444655029297,84.85351113525391,93.58504655029297,84.3962111352539,93.58504655029297C83.9897311352539,93.58504655029297,83.5832511352539,93.73445655029298,83.1259511352539,94.03326655029296C83.1259511352539,94.03326655029296,83.1259511352539,94.03326655029296,83.1259511352539,94.03326655029296Z" fill="#F58A07" fill-opacity="1"/></g><g><path d="M77.68880492675781,101.7526257006836C77.68880492675781,101.7526257006836,75.60558492675781,97.17088270068359,75.60558492675781,97.17088270068359C75.60558492675781,97.17088270068359,77.12989492675781,96.4736557006836,77.12989492675781,96.4736557006836C77.12989492675781,96.4736557006836,80.68657492675781,104.14310570068359,80.68657492675781,104.14310570068359C80.68657492675781,104.14310570068359,79.21311492675781,104.79052570068359,79.21311492675781,104.79052570068359C79.21311492675781,104.79052570068359,78.65420492675781,103.5454857006836,78.65420492675781,103.5454857006836C78.65420492675781,103.5454857006836,78.55258492675782,103.59528570068359,78.55258492675782,103.59528570068359C78.55258492675782,104.0933057006836,78.45096492675782,104.54151570068359,78.14610492675781,104.93992570068359C77.89205492675781,105.33834570068359,77.43476492675781,105.6869557006836,76.87584492675781,105.93595570068359C76.31693492675781,106.18496570068359,75.80882492675781,106.28457570068359,75.30072492675781,106.2347757006836C74.79262492675781,106.1849757006836,74.3353249267578,105.9857657006836,73.92884492675782,105.6869557006836C73.52236492675782,105.3881457006836,73.16668492675781,104.8901257006836,72.86182492675782,104.24270570068359C72.86182492675782,104.24270570068359,70.62617492675781,99.3621457006836,70.62617492675781,99.3621457006836C70.62617492675781,99.3621457006836,72.15048492675781,98.6649357006836,72.15048492675781,98.6649357006836C72.15048492675781,98.6649357006836,74.33533492675781,103.34627570068359,74.33533492675781,103.34627570068359C74.58938492675782,103.8940957006836,74.94504492675782,104.29250570068359,75.4023449267578,104.4419157006836C75.8596349267578,104.6411157006836,76.31693492675781,104.5913257006836,76.82503492675781,104.39211570068359C77.18070492675781,104.24270570068359,77.43476492675781,104.0435057006836,77.63800492675782,103.7446957006836C77.84124492675781,103.4956857006836,77.9428649267578,103.1470657006836,77.99367492675782,102.79845570068359C77.99367492675782,102.54944570068359,77.89204492675782,102.2008457006836,77.68880492675781,101.7526257006836C77.68880492675781,101.7526257006836,77.68880492675781,101.7526257006836,77.68880492675781,101.7526257006836Z" fill="#F58A07" fill-opacity="1"/></g></g></svg>